<svg xmlns="http://www.w3.org/2000/svg" viewBox="0 0 24 24" role="img" aria-label="PureVPN">
  <!-- PureVPN green shield with P/keyhole emblem -->
  <path fill="#3CB521" d="M12 1 L3 4.5 L3 12 C3 17.5 7 21.8 12 23 C17 21.8 21 17.5 21 12 L21 4.5 Z"/>
  <path fill="#fff" d="M12 5 C9.8 5 8 6.8 8 9 L8 11 L8 19 L10 19 L10 15 C10.6 15.3 11.3 15.5 12 15.5 C14.5 15.5 16.5 13.5 16.5 11 C16.5 8 14.5 5 12 5 Z M12 13.5 C10.9 13.5 10 12.6 10 11.5 L10 9 C10 7.9 10.9 7 12 7 C13.7 7 14.5 8.3 14.5 10 C14.5 12 13.4 13.5 12 13.5 Z"/>
</svg>
