<svg xmlns="http://www.w3.org/2000/svg" viewBox="0 0 24 24" role="img" aria-label="WireGuard"><path fill="#88171A" d="M23.98 11.645S24.533 0 11.735 0C.418 0 .064 11.17.064 11.17S-1.6 24 11.997 24C25.04 24 23.98 11.645 23.98 11.645zM8.155 7.576c2.4-1.47 5.469-.571 6.618 1.638.218.419.246 1.063.108 1.503-.477 1.516-1.601 2.366-3.145 2.728.455-.39.817-.832.933-1.442a2.112 2.112 0 0 0-.364-1.677 2.14 2.14 0 0 0-2.465-.75c-.95.36-1.47 1.228-1.377 2.294.087.99.839 1.632 2.245 1.876-.21.111-.372.193-.53.281a5.113 5.113 0 0 0-1.644 1.43c-.143.192-.24.208-.458.075-2.827-1.729-3.009-6.067.078-7.956z"/></svg>
