<svg xmlns="http://www.w3.org/2000/svg" viewBox="0 0 1000 520" role="img" aria-label="World map">
  <!-- Derived from Natural Earth 1:110m Admin 0 Countries, public domain: https://www.naturalearthdata.com/ -->
  <rect width="1000" height="520" fill="none"/>
  <path d="M1000 306L1000 308L998 309L996 309L996 308L997 307L998 307L1000 306ZM995 311L995 310L996 311L996 312L994 313L993 312L992 311L994 310L995 311ZM1 306L0 308L0 308L0 306L1 306ZM594 263L595 263L605 269L605 271L609 274L608 277L608 279L610 280L610 281L609 282L609 283L609 285L610 286L611 289L612 290L612 290L610 291L607 293L605 293L604 293L602 293L601 294L598 293L596 293L595 289L594 288L594 287L591 287L589 286L588 285L587 285L585 284L585 284L584 280L582 279L582 277L582 276L581 273L583 273L584 272L585 270L585 270L585 269L585 268L585 267L585 267L585 267L586 265L584 263L585 263L589 263L594 263ZM476 180L476 180L476 181L476 185L467 185L467 192L464 193L464 194L464 198L453 198L453 199L453 198L453 198L459 198L459 197L460 196L461 192L465 188L467 185L467 185L468 182L471 182L472 182L473 182L474 182L476 182L476 180L476 180ZM159 118L158 118L153 116L151 114L146 113L144 111L145 109L141 108L141 105L137 103L137 102L137 102L139 100L139 98L134 97L131 93L130 91L127 90L125 89L124 87L121 88L118 90L116 88L114 87L111 86L108 86L108 69L108 59L108 59L114 59L118 61L121 61L123 60L127 59L131 59L135 58L139 57L141 58L143 58L144 56L146 57L151 59L154 57L155 60L158 59L159 58L163 58L167 60L173 61L177 61L180 61L184 62L180 64L185 64L192 64L195 64L198 65L201 64L198 63L200 62L203 62L205 61L207 62L210 64L213 63L218 65L222 64L227 64L226 62L229 62L233 63L233 66L235 63L237 63L238 60L235 59L232 58L232 54L236 52L239 53L242 54L246 57L243 59L248 59L248 62L252 60L256 62L255 64L257 66L260 64L262 61L262 58L266 58L270 59L274 60L274 62L272 63L274 65L274 66L268 68L265 69L262 68L261 69L258 72L257 73L254 75L250 75L248 76L248 78L245 78L241 81L238 84L237 86L237 90L241 90L242 93L244 95L248 95L253 96L255 97L257 98L261 99L264 100L268 100L271 101L271 103L272 106L274 109L278 112L280 111L282 108L280 104L278 102L283 101L286 99L287 97L287 95L285 92L282 90L285 87L284 84L283 80L285 79L290 80L293 80L295 80L297 81L301 82L302 83L307 84L307 86L308 90L310 90L312 92L316 90L319 87L321 86L323 88L326 92L329 95L328 97L332 99L335 101L339 101L341 102L342 105L344 105L345 106L345 109L343 110L341 111L337 112L333 115L329 115L323 115L318 115L316 115L313 117L310 118L306 122L302 125L305 124L309 120L315 118L319 118L322 119L319 121L320 124L321 126L325 128L329 127L332 124L332 126L334 127L330 129L324 131L322 132L318 134L316 134L316 132L321 129L317 129L314 130L312 128L312 124L310 123L309 124L308 123L306 125L305 127L304 129L303 129L302 129L301 130L296 130L292 130L291 131L288 133L288 133L287 134L284 134L281 134L280 134L281 135L281 136L281 136L277 138L274 138L271 140L270 140L269 139L269 139L269 138L270 137L271 136L272 134L271 132L271 129L268 128L268 127L268 127L267 127L266 126L266 126L266 126L265 126L265 126L265 125L264 125L262 124L260 123L257 122L255 120L252 121L251 121L248 121L245 121L243 120L240 120L238 119L237 119L237 117L236 117L236 118L230 118L220 118L211 118L203 118L194 118L186 118L178 118L175 118L167 118L159 118ZM267 80L269 78L273 78L273 79L269 80L267 80L267 80ZM278 50L275 48L275 47L277 47L283 47L288 49L288 50L285 50L282 49L279 50L278 50ZM277 81L278 80L279 80L280 80L279 82L278 82L277 81L277 81ZM240 43L238 45L234 44L231 44L233 42L237 41L239 42L240 43ZM239 36L238 36L233 36L232 35L238 35L240 36L239 36ZM231 32L235 33L234 35L230 35L227 34L226 33L226 32L230 32L231 32ZM255 45L251 45L243 44L242 42L242 41L239 40L233 39L230 38L231 37L237 37L240 38L246 38L248 39L247 40L250 41L252 42L256 42L260 42L264 41L270 41L275 41L278 42L278 44L277 44L272 45L269 45L261 45L255 45ZM191 34L195 35L194 36L189 36L185 35L187 35L191 34ZM192 32L195 33L192 33L187 33L187 33L190 32L192 32ZM346 112L344 114L342 116L344 115L346 116L345 117L347 118L349 117L351 118L351 120L353 119L353 121L354 123L353 125L351 125L350 125L350 122L349 122L346 125L344 124L346 123L344 122L341 123L335 122L335 122L337 121L335 120L338 118L341 113L342 112L345 111L346 111L346 112ZM267 72L270 73L273 74L273 75L276 75L277 76L275 77L271 76L269 75L266 76L262 78L261 76L258 76L260 75L260 73L261 70L263 70L264 72L265 71L267 72ZM281 51L284 50L290 51L294 53L294 54L299 53L302 55L309 56L311 57L314 60L309 61L315 63L320 64L324 67L328 67L327 69L322 72L319 71L315 68L311 69L311 70L314 72L317 73L319 74L320 77L319 79L316 78L309 76L313 78L316 80L316 81L309 80L303 78L299 77L300 76L296 75L292 73L292 74L284 74L282 73L284 71L289 71L295 71L294 70L295 68L298 66L297 64L296 63L292 62L286 61L288 60L285 58L283 58L281 57L279 58L274 59L264 58L258 57L254 57L251 56L254 54L250 54L249 51L252 49L254 48L262 47L260 49L262 50L264 48L271 47L276 50L276 52L281 51ZM237 46L243 46L249 47L244 49L241 50L238 52L235 52L233 49L233 48L235 47L237 46ZM159 40L159 40L163 38L169 36L173 36L177 36L177 38L175 39L172 39L167 40L163 41L159 40ZM131 104L134 104L133 107L136 109L135 109L133 108L132 107L130 106L130 104L130 104L131 104ZM207 31L212 31L220 32L222 34L223 35L219 35L214 34L208 34L211 33L207 32L207 31ZM157 120L156 120L151 119L150 118L148 117L147 116L144 116L143 114L143 113L146 114L148 114L151 115L152 116L153 117L156 118L157 120ZM162 45L166 46L173 46L176 47L179 48L176 48L169 50L165 53L165 54L158 55L157 54L150 52L151 51L153 49L156 47L153 45L162 45ZM201 41L203 40L206 41L206 42L205 43L195 44L188 45L184 45L184 44L189 43L177 43L173 43L177 40L179 39L187 40L192 42L197 42L193 39L196 38L198 38L199 40L201 41ZM204 49L207 50L209 53L210 55L214 56L219 58L219 59L215 59L216 60L215 61L210 61L206 60L202 60L197 61L190 62L185 62L184 61L180 60L177 60L174 58L176 58L180 57L184 57L188 57L182 56L176 56L172 56L171 55L177 54L173 54L168 53L171 51L173 50L180 48L183 49L181 50L188 49L192 51L195 49L197 50L199 53L201 52L199 49L201 48L204 49ZM221 50L218 48L221 47L225 47L230 47L230 48L228 49L232 50L231 53L227 54L224 54L222 53L215 51L215 50L221 50ZM204 47L208 47L210 48L207 50L203 48L204 47ZM226 38L229 40L229 41L227 43L223 44L220 43L220 41L215 42L215 39L218 40L222 39L226 39L226 38ZM233 27L235 26L238 26L237 25L243 25L247 27L252 27L256 28L258 30L262 31L258 32L253 34L248 34L242 34L239 32L239 31L241 31L236 31L233 30L231 28L233 27ZM246 23L250 23L253 23L258 22L263 21L266 21L269 22L271 21L275 20L280 20L288 20L290 20L298 20L304 20L310 20L317 20L323 21L328 21L328 22L321 23L315 24L312 25L318 25L312 26L307 27L302 29L297 30L295 31L286 31L290 31L288 32L291 33L288 34L284 35L282 36L278 37L279 38L284 37L284 38L276 40L269 39L261 40L257 39L251 39L251 38L256 37L255 35L257 35L264 36L260 34L256 34L258 32L263 32L264 31L260 30L259 28L266 28L268 29L273 28L266 27L257 27L252 26L249 25L246 24L246 23ZM291 65L289 66L286 66L285 65L287 63L289 63L291 64L291 65L291 65ZM233 59L234 60L233 61L229 60L227 61L223 60L225 59L227 57L230 58L232 59L233 59ZM321 116L322 116L325 116L328 118L328 118L327 118L323 117L321 116ZM322 124L323 126L325 126L328 126L326 127L325 127L322 126L321 125L322 124ZM159 118L167 118L175 118L178 118L186 118L194 118L203 118L211 118L220 118L230 118L236 118L236 117L237 117L237 119L238 119L240 120L243 120L245 121L248 121L251 121L252 121L255 120L257 122L260 123L262 124L264 125L265 125L265 126L265 126L266 126L266 126L266 126L267 127L268 127L268 127L268 128L271 129L271 132L272 134L271 136L270 137L269 138L269 139L269 139L270 140L271 140L274 138L277 138L281 136L281 136L281 135L280 134L281 134L284 134L287 134L288 133L288 133L291 131L292 130L296 130L301 130L302 129L303 129L304 129L305 127L306 125L308 123L309 124L310 123L312 124L312 128L314 130L314 131L311 132L308 133L305 134L304 136L303 136L303 138L304 139L305 139L305 138L306 139L306 140L304 140L302 140L300 141L299 141L298 141L295 142L299 141L300 142L296 143L294 143L295 142L294 143L295 143L294 145L292 148L292 147L291 147L290 146L291 147L291 148L292 149L291 150L289 152L289 152L290 150L288 149L288 147L287 148L288 150L286 150L288 150L288 153L289 153L289 154L290 157L288 159L285 160L283 162L282 162L280 163L280 164L277 166L275 167L274 169L274 171L274 173L275 176L276 178L276 179L278 182L278 184L277 185L277 187L276 188L275 187L274 186L273 185L272 183L270 181L270 179L270 178L270 176L267 174L266 173L264 174L263 174L262 173L260 172L257 173L254 172L252 172L251 173L252 174L252 175L252 175L252 176L251 175L250 176L248 176L245 174L243 175L241 174L239 174L237 175L234 177L232 178L230 180L230 181L230 183L230 184L230 185L229 185L227 185L225 184L224 182L224 180L222 179L221 177L220 175L218 174L215 174L214 176L211 175L210 175L209 173L208 171L207 170L205 169L204 168L199 168L199 169L197 169L192 169L185 167L181 166L181 165L178 166L175 166L174 165L172 163L171 163L171 162L169 162L168 161L166 160L165 160L165 158L162 156L160 152L160 151L158 150L156 147L156 145L154 144L155 141L155 139L154 136L155 134L155 131L156 128L155 125L154 122L154 121L154 120L158 121L159 124L160 123L160 121L159 118ZM68 202L69 202L69 203L70 204L70 204L69 204L68 205L68 205L67 205L67 204L66 203L67 203L67 202L67 202L67 201L67 202L68 202ZM67 200L66 200L66 201L65 200L65 200L65 200L65 199L66 200L67 200ZM65 199L64 199L63 199L63 199L65 199ZM61 197L61 197L62 198L62 199L62 199L61 198L60 198L60 198L61 197ZM57 196L57 196L57 197L56 196L56 196L57 196L57 196ZM38 86L40 86L40 87L38 87L37 87L35 86L38 86ZM74 93L76 93L77 94L75 95L72 96L71 95L70 94L73 93L74 93ZM108 59L108 59L108 69L108 86L111 86L114 87L116 88L118 90L121 88L124 87L125 89L127 90L130 91L131 93L134 97L139 98L139 100L137 102L137 102L137 102L136 101L133 100L133 97L129 95L128 92L125 92L120 92L117 91L111 88L109 87L104 86L100 87L95 85L91 84L88 85L89 87L87 87L84 88L82 88L79 89L78 87L79 85L82 84L82 83L78 85L76 86L72 89L74 90L72 92L69 93L66 94L65 95L61 97L60 98L57 99L55 99L52 100L49 101L47 102L42 103L42 102L45 101L48 100L51 99L54 98L55 97L59 95L60 95L62 94L62 91L64 90L61 91L60 90L58 91L56 90L56 91L55 89L52 91L50 91L50 89L50 88L49 87L45 87L43 86L41 85L41 84L39 82L40 81L42 79L43 78L45 77L47 78L49 76L51 77L53 76L53 74L51 74L53 73L52 73L49 73L48 74L46 73L42 74L38 73L37 72L33 70L37 69L43 68L45 68L45 69L51 69L49 67L45 66L43 65L41 63L37 63L38 61L43 61L47 60L47 58L50 57L53 56L58 55L61 55L65 54L69 54L71 56L72 55L77 55L77 56L81 57L84 56L90 57L95 57L97 58L101 57L105 58L108 59L108 59ZM23 76L25 76L26 76L29 77L31 77L31 77L29 78L27 77L26 77L23 77L23 77L23 76ZM743 118L741 120L738 120L738 123L737 124L731 123L729 128L728 129L722 130L725 135L723 136L723 138L721 137L720 136L716 136L711 136L710 136L706 135L705 136L704 137L700 136L698 137L697 138L696 138L692 140L691 143L690 143L689 141L685 141L685 139L683 139L684 136L680 134L676 134L672 134L670 132L667 131L663 129L663 128L655 130L655 141L654 141L652 139L650 138L647 138L646 139L646 139L646 137L646 136L643 135L641 133L640 132L640 131L642 131L643 129L645 129L647 129L648 126L647 125L645 125L642 124L639 125L636 126L635 125L635 124L633 122L631 122L629 120L631 118L630 117L632 114L635 116L635 114L641 111L645 111L651 113L655 114L658 113L662 112L666 114L666 113L670 113L671 112L667 110L669 108L669 108L671 107L669 105L671 104L681 103L682 102L689 101L692 100L697 101L698 104L701 103L704 104L704 105L707 105L714 103L713 103L716 106L722 113L724 112L728 113L732 112L733 113L734 115L736 115L738 116L741 116L743 118ZM655 141L655 130L663 128L663 129L667 131L670 132L672 134L676 134L680 134L684 136L683 139L685 139L685 141L689 141L690 143L691 143L692 140L696 138L697 138L698 138L696 140L698 141L700 140L703 142L699 144L697 144L696 144L696 143L696 142L693 142L692 144L690 146L688 146L687 147L689 148L690 150L688 153L686 152L685 152L685 150L681 149L678 148L676 146L673 144L672 141L671 141L668 141L667 140L667 138L663 136L661 138L658 139L659 141L655 141ZM892 268L896 270L902 271L904 273L905 274L906 276L910 278L911 279L908 279L909 281L911 283L913 286L915 286L915 287L917 288L916 289L919 290L919 291L917 291L916 290L914 290L911 289L909 287L907 286L906 283L902 282L900 283L898 284L898 286L896 287L895 286L892 286L892 277L892 268ZM924 271L925 271L925 273L925 274L924 272L923 271L922 270L921 269L919 268L919 267L921 268L922 269L923 269L924 271ZM920 277L919 278L917 278L916 278L914 277L912 277L912 276L915 276L916 276L917 275L917 274L917 276L919 276L920 275L921 274L921 272L923 272L923 272L923 274L922 276L921 276L920 277ZM930 275L931 276L932 278L933 279L933 280L932 280L931 279L930 277L929 275L930 275L930 275ZM892 268L892 277L892 286L889 284L886 283L886 284L882 284L883 282L885 281L884 278L883 276L878 273L875 273L871 270L870 272L869 272L869 271L869 270L867 268L870 267L872 267L871 266L867 266L866 265L864 264L863 263L866 262L868 261L872 262L873 263L873 268L876 270L879 267L882 265L884 265L887 266L889 267L892 268ZM847 286L847 286L847 287L846 289L843 290L843 290L843 289L844 287L847 286ZM873 280L873 278L873 277L874 276L874 277L874 278L873 280ZM827 248L826 251L828 253L827 255L831 257L827 258L826 260L826 262L824 264L824 267L823 272L822 271L819 272L818 270L816 270L815 269L811 270L810 269L808 269L806 268L806 265L804 264L803 261L803 259L803 256L805 254L805 256L807 258L809 257L811 257L812 256L813 256L816 256L818 256L820 252L821 251L822 248L825 248L827 248ZM859 268L862 269L863 271L861 270L859 270L857 270L855 270L856 268L859 268ZM852 271L851 270L850 269L853 269L853 270L852 271ZM855 254L856 255L857 256L857 257L857 259L856 259L855 261L857 262L856 263L855 261L854 257L854 255L855 254ZM841 257L845 257L847 255L848 256L846 259L844 259L841 259L836 259L834 259L833 262L836 264L837 263L843 262L842 263L841 263L840 264L838 266L840 269L840 270L842 274L842 275L841 276L840 275L841 273L838 274L837 273L838 272L836 270L836 268L834 268L834 272L835 276L833 276L832 276L832 273L832 270L831 270L830 268L831 266L831 264L833 260L833 258L836 256L838 257L841 257ZM834 290L830 288L833 287L835 288L835 289L835 290L834 290ZM837 285L839 284L841 283L841 285L837 286L833 285L833 284L835 284L837 285ZM829 284L830 284L831 285L828 286L826 286L824 286L825 284L827 284L828 283L829 284ZM801 279L802 280L807 280L808 279L813 280L814 282L818 282L821 284L818 285L815 284L813 284L810 284L807 283L804 282L802 282L801 282L796 281L795 280L793 280L795 277L798 277L800 278L801 279ZM790 263L790 265L791 267L793 267L795 269L794 272L794 277L791 277L789 275L785 272L784 270L782 268L780 266L778 262L776 259L775 257L774 255L771 253L770 250L768 249L765 246L765 244L766 244L771 245L773 248L775 250L777 251L780 254L782 254L785 256L786 258L788 260L787 262L789 263L790 263ZM309 412L310 413L312 416L315 417L319 418L318 419L315 420L314 419L312 419L309 419L309 412ZM340 347L339 350L338 353L339 355L338 356L338 358L338 359L341 362L341 364L342 365L342 367L340 370L335 372L330 372L327 372L327 374L327 376L327 378L326 379L323 379L320 378L319 379L320 382L321 382L323 381L324 383L321 384L319 386L319 389L318 390L315 390L313 392L312 394L315 396L318 396L317 399L313 401L312 404L309 405L308 407L309 410L311 411L310 411L307 411L300 410L299 409L299 406L297 407L296 406L296 402L298 401L299 399L299 398L300 395L301 392L301 390L302 389L302 388L301 388L301 386L300 385L300 382L301 381L300 378L301 375L302 372L303 371L302 369L302 366L305 364L304 362L306 359L306 356L305 356L304 351L306 348L306 345L307 342L308 340L310 338L309 337L310 336L310 331L313 329L314 326L314 326L316 323L320 324L321 326L322 324L325 324L326 324L331 329L333 329L337 332L340 333L340 334L337 338L340 339L343 340L345 339L348 337L348 334L350 334L351 335L351 338L349 339L347 341L344 343L340 347ZM309 412L309 419L312 419L314 419L313 420L311 421L309 421L308 420L306 419L303 419L299 417L296 416L293 413L295 413L299 415L302 416L304 415L305 413L307 412L309 412ZM307 311L308 313L308 315L310 316L309 319L311 322L312 326L314 326L314 326L313 329L310 331L310 336L309 337L310 338L308 340L307 342L306 345L306 348L304 351L305 356L306 356L306 359L304 362L305 364L302 366L302 369L303 371L302 372L301 375L300 378L301 381L300 382L300 385L301 386L301 388L302 388L302 389L301 390L301 392L300 395L299 398L299 399L298 401L296 402L296 406L297 407L299 406L299 409L300 410L307 411L310 411L307 411L306 412L303 413L303 416L302 416L298 415L295 413L295 413L292 411L291 409L292 407L290 406L290 401L291 398L294 396L290 395L293 392L293 387L297 388L298 382L296 382L295 385L294 385L294 381L295 375L297 373L296 371L296 367L297 367L298 363L300 358L302 354L301 349L302 347L301 343L303 340L304 334L304 328L305 322L305 317L305 313L306 312L307 311ZM581 273L582 276L582 277L582 279L584 280L585 284L585 284L584 284L581 284L580 285L579 286L580 288L579 291L579 294L580 295L582 296L582 295L582 298L580 298L579 297L578 295L576 295L575 294L574 294L572 294L571 293L569 292L568 293L567 292L566 292L565 291L563 292L562 292L562 292L562 289L561 288L561 286L561 284L560 283L560 281L557 281L557 280L556 280L556 281L554 281L553 282L553 283L551 283L550 283L549 283L547 282L547 281L546 279L545 277L537 277L536 277L535 277L534 278L534 277L535 276L535 275L535 274L536 274L537 274L538 273L539 273L539 274L541 274L542 273L544 271L544 270L544 268L546 265L547 264L549 262L549 261L549 260L550 259L549 258L550 255L550 253L551 252L551 250L552 248L553 246L554 245L556 246L558 248L560 248L562 248L563 247L563 246L565 247L568 245L569 246L570 246L570 245L571 245L573 245L575 245L576 245L578 247L579 248L580 247L581 247L583 247L583 248L586 250L586 250L585 253L587 254L586 255L585 255L584 257L583 258L583 261L582 262L582 264L581 265L581 266L581 267L581 268L581 270L581 273ZM616 265L614 262L614 252L616 249L617 248L619 248L621 246L625 246L633 237L635 234L636 233L636 231L636 228L636 227L636 227L636 227L637 227L638 227L640 226L641 225L642 225L642 226L642 228L642 229L641 230L640 233L639 237L637 240L635 245L633 248L629 252L627 254L622 257L620 259L617 263L616 264L616 265ZM609 274L605 271L605 269L595 263L594 263L594 260L595 259L596 257L597 254L596 251L596 250L594 248L596 246L598 244L599 245L599 246L600 247L602 247L606 250L607 250L607 250L608 250L610 250L611 249L613 248L614 249L616 249L614 252L614 262L616 265L614 266L613 267L612 267L611 269L611 271L610 273L609 274ZM568 236L566 235L565 234L565 233L565 232L565 231L564 229L564 228L564 227L563 226L562 225L562 223L561 224L561 223L562 221L562 220L563 219L562 219L563 217L564 215L566 215L566 203L566 202L569 202L569 196L581 196L591 196L602 196L603 199L603 200L603 203L604 206L605 207L607 208L605 210L603 210L602 211L602 213L601 217L601 218L601 221L600 224L598 225L597 227L596 228L595 229L594 232L594 235L594 233L594 233L594 231L594 230L592 229L592 227L592 225L591 225L591 225L589 225L590 226L590 228L588 230L587 232L586 232L583 230L582 231L582 232L581 232L580 233L578 233L577 232L575 232L574 233L574 232L572 231L572 230L570 230L569 232L568 234L567 235L566 235L568 236ZM566 203L566 215L564 215L563 217L562 219L563 219L562 220L562 221L561 223L561 224L562 223L562 225L563 226L564 227L564 228L562 228L560 229L558 233L556 234L553 234L552 234L553 235L551 236L550 237L546 238L546 238L545 238L545 238L542 239L543 238L542 236L542 235L540 234L539 232L539 231L541 231L541 231L543 231L541 229L542 227L541 225L540 223L541 221L539 221L539 220L538 218L539 215L542 212L543 208L544 202L544 201L543 200L543 199L542 198L541 194L544 192L555 198L566 203ZM301 203L301 205L301 206L300 206L301 207L301 208L299 207L298 208L296 207L295 208L293 207L293 206L296 206L298 207L299 206L298 205L298 204L296 203L297 202L298 203L301 203ZM301 208L301 207L300 206L301 206L301 205L301 203L301 203L303 203L305 203L306 203L306 204L308 204L308 205L309 205L310 206L309 207L308 207L307 207L306 207L305 207L304 207L304 207L303 207L302 209L301 209L301 208ZM996 55L1000 53L1000 55L997 56L996 55ZM636 126L635 128L632 128L630 131L632 134L632 136L635 139L635 139L633 140L633 141L632 141L630 139L629 139L627 138L626 137L624 137L622 137L622 137L618 135L614 135L611 134L611 135L607 132L604 131L602 129L604 129L606 126L605 125L609 124L609 123L606 124L606 123L608 122L610 122L611 121L610 119L611 118L611 117L607 116L606 116L604 114L602 115L598 114L598 113L597 112L595 112L595 111L596 110L594 109L591 109L590 109L589 110L588 109L588 109L588 108L587 107L587 106L590 107L591 106L590 105L588 105L588 104L587 104L585 102L586 101L586 100L583 99L582 99L581 98L578 98L577 96L577 95L576 94L577 93L576 90L578 89L578 88L578 88L581 87L578 85L578 85L584 82L586 80L588 78L583 76L585 75L582 72L584 70L581 67L583 64L579 63L579 60L582 60L586 59L586 59L589 58L594 60L601 60L612 64L614 65L614 67L611 69L607 69L594 67L592 68L597 70L597 71L597 74L601 75L603 76L603 74L601 73L603 72L610 74L612 73L610 71L617 68L619 68L622 69L624 67L621 65L623 64L621 62L628 63L630 64L627 65L627 66L629 67L633 67L634 65L640 64L649 61L651 61L649 63L652 63L654 62L659 62L663 61L667 63L670 61L667 59L668 58L676 59L680 60L690 63L692 62L689 60L689 60L686 59L687 58L685 56L685 55L690 52L692 50L694 49L702 50L702 51L700 54L701 55L702 57L702 61L705 62L703 64L698 68L701 69L702 68L705 67L706 66L708 64L707 63L708 61L705 60L704 59L707 56L703 54L708 52L707 50L709 50L710 51L709 54L712 54L711 52L715 51L721 51L726 53L724 50L724 47L728 47L735 47L741 46L739 45L742 43L745 43L751 41L758 41L759 40L766 40L769 41L775 39L780 39L781 38L783 37L790 36L795 36L791 37L797 38L798 39L800 38L809 38L815 40L817 41L816 42L813 43L806 45L804 46L807 46L811 47L814 46L815 48L817 47L821 47L830 47L831 49L842 49L842 47L848 47L853 47L857 49L858 51L857 52L860 54L865 56L867 52L872 54L877 53L882 54L884 53L889 53L887 51L890 50L915 51L918 53L925 55L936 55L942 55L944 56L944 59L947 59L951 59L956 59L961 59L966 59L971 62L974 61L972 59L973 57L982 58L988 58L996 60L1000 61L1000 72L1000 72L996 74L993 73L995 75L997 77L998 78L999 79L998 80L993 79L985 82L982 82L978 84L974 86L973 87L969 85L962 87L961 86L958 87L954 87L953 89L950 92L950 93L953 94L953 98L950 98L949 100L950 102L945 103L945 106L940 107L940 110L936 113L934 111L933 106L932 100L933 96L935 94L936 93L940 92L945 89L950 86L955 83L957 79L953 80L952 82L945 85L943 82L935 83L928 87L931 89L924 90L920 90L920 88L916 88L913 89L904 89L895 89L886 95L875 102L880 102L881 104L884 105L886 103L889 103L893 107L893 109L891 112L890 115L889 120L885 124L884 126L880 130L876 133L875 135L871 136L869 136L867 135L864 137L863 138L863 138L863 138L863 138L863 138L863 138L863 136L864 136L865 133L864 130L866 129L870 130L872 127L873 124L874 123L875 120L870 121L868 122L864 122L863 119L859 117L855 116L854 113L853 112L852 110L850 107L847 106L843 106L840 106L836 106L834 108L835 108L835 110L834 111L831 114L831 115L827 117L824 116L821 116L819 115L818 115L814 117L810 117L807 118L804 118L801 118L800 116L797 115L794 114L791 115L788 115L784 114L784 112L780 111L778 111L775 110L772 113L773 114L770 116L766 116L763 116L762 114L759 114L756 113L752 115L747 117L744 118L743 118L741 116L738 116L736 115L734 115L733 113L732 112L728 113L724 112L722 113L716 106L713 103L714 103L707 105L704 105L704 104L701 103L698 104L697 101L692 100L689 101L682 102L681 103L671 104L669 105L671 107L669 108L669 108L667 110L671 112L670 113L666 113L666 114L662 112L658 113L655 114L651 113L645 111L641 111L635 114L635 116L632 114L630 117L631 118L629 120L631 122L633 122L635 124L635 125L636 126ZM760 26L767 25L772 27L778 30L778 32L772 32L764 32L759 31L757 28L753 28L760 26ZM786 31L793 33L792 34L776 35L781 31L784 31L786 31ZM886 40L893 40L903 42L901 44L891 44L886 44L880 43L882 41L886 40ZM912 42L919 43L915 44L911 44L906 43L907 42L912 42ZM889 48L891 47L895 47L899 48L899 48L895 49L889 48L889 48ZM625 27L630 27L634 27L635 27L636 27L639 26L643 27L642 27L638 28L636 28L635 28L632 29L629 28L631 27L625 27ZM563 103L558 103L555 103L555 101L559 101L562 101L563 102L563 102L563 103ZM649 47L655 44L655 43L661 42L670 40L679 39L684 38L689 38L691 39L689 40L680 41L671 43L662 45L658 48L654 51L655 53L660 56L658 56L649 56L648 54L643 54L643 52L646 51L646 50L651 47L649 47ZM897 105L898 108L898 110L899 113L902 119L898 118L896 122L899 125L899 127L897 125L895 127L894 125L894 122L894 119L895 117L895 113L893 110L894 106L896 105L895 103L896 103L897 105ZM14 66L14 68L16 68L15 66L23 67L28 69L25 71L21 71L21 74L20 74L17 74L15 73L11 72L11 71L8 71L5 71L3 70L4 69L0 70L2 71L0 72L0 61L7 63L14 66ZM4 55L0 55L0 53L0 53L3 53L7 54L6 55L4 55ZM593 127L594 126L596 127L596 127L597 128L597 128L597 128L599 129L601 129L601 130L598 130L594 132L593 131L593 130L590 129L591 129L593 128L593 127ZM281 183L282 182L284 182L284 183L281 184L281 183ZM284 182L286 183L286 185L285 185L285 183L284 182L284 182ZM283 187L284 187L285 190L285 191L284 192L283 190L282 189L283 187ZM330 410L333 408L336 409L337 408L340 409L339 410L335 411L334 410L331 411L330 410ZM542 30L543 29L547 29L551 30L560 32L553 33L551 35L549 36L548 38L544 38L538 36L541 35L537 35L531 32L529 30L537 29L538 30L542 30ZM586 59L582 60L579 60L581 58L577 57L573 58L571 60L569 62L566 61L562 61L559 60L557 60L556 60L555 62L550 62L549 64L547 64L545 66L542 69L538 73L539 74L538 75L535 75L533 78L533 81L535 83L534 86L532 88L531 90L529 88L523 92L520 92L516 91L515 88L514 81L516 79L524 77L529 74L534 70L541 64L546 62L553 58L559 57L564 57L568 55L573 55L578 54L587 56L583 57L586 59ZM576 29L572 30L564 31L556 30L555 29L551 29L548 28L557 27L561 28L564 27L571 28L576 29ZM569 35L562 36L558 36L559 35L558 34L564 33L565 34L569 35ZM370 21L379 20L389 20L393 19L403 18L425 19L442 21L437 22L426 22L411 23L413 23L423 23L431 24L436 23L439 24L436 26L443 24L456 23L465 24L466 25L455 27L453 28L444 28L451 29L448 31L445 32L445 36L449 38L444 38L440 39L445 40L446 43L443 43L446 45L440 46L443 47L442 48L438 48L435 48L438 50L438 51L433 50L431 51L435 52L439 54L440 56L435 56L432 55L429 54L430 56L427 57L434 57L438 57L430 60L423 62L415 63L412 63L409 64L405 67L399 69L397 70L393 70L389 71L387 73L387 75L386 77L381 79L382 81L381 84L380 86L376 87L371 84L366 84L363 83L361 80L357 76L355 74L355 72L351 69L352 67L350 66L353 63L357 61L358 60L359 58L356 59L354 59L352 60L348 59L348 57L349 55L352 55L357 56L352 54L350 53L347 54L345 53L348 50L346 49L344 47L341 44L337 43L337 42L330 40L324 40L316 40L310 40L306 39L302 38L309 37L315 36L303 36L296 35L297 33L307 32L317 31L319 30L311 29L313 27L323 25L327 25L326 24L333 23L341 23L350 23L353 23L360 22L367 23L371 23L376 24L370 23L370 21ZM691 400L693 401L696 402L696 402L695 404L691 404L691 402L691 401L691 400ZM847 286L847 285L850 284L852 284L853 284L854 284L853 285L850 286L847 287L847 286L847 286ZM545 343L547 341L548 342L548 343L550 343L551 344L553 344L555 342L555 332L556 332L558 335L557 336L558 338L560 337L561 336L563 335L563 334L565 333L566 333L567 334L570 334L571 334L572 333L572 331L574 331L574 330L575 328L578 326L582 324L583 324L584 324L585 324L587 324L588 328L589 330L588 334L588 335L587 334L586 334L586 335L585 336L585 337L587 339L589 339L589 337L591 337L591 339L590 342L589 343L588 345L587 345L586 346L585 348L583 350L580 353L578 355L576 356L573 357L572 357L572 358L570 358L569 358L566 358L564 358L563 358L560 359L557 359L556 361L554 361L553 360L552 360L551 358L551 359L551 358L551 356L550 354L551 354L551 351L549 349L547 346L547 346L545 343ZM580 344L579 343L578 343L576 344L575 346L577 349L578 348L579 347L580 347L581 346L581 345L580 344ZM580 344L581 345L581 346L580 347L579 347L578 348L577 349L575 346L576 344L578 343L579 343L580 344ZM175 166L178 166L181 165L181 166L185 167L192 169L197 169L199 169L199 168L204 168L205 169L207 170L208 171L209 173L210 175L211 175L214 176L215 174L218 174L220 175L221 177L222 179L224 180L224 182L225 184L227 185L229 185L230 185L229 188L229 190L228 194L228 195L229 197L229 198L230 200L232 203L233 204L234 206L237 206L238 208L240 207L242 206L244 206L246 205L248 204L249 203L249 200L249 199L251 199L254 198L257 198L258 198L259 198L259 200L257 201L257 203L257 204L257 205L256 207L255 207L255 207L254 207L253 208L253 208L252 208L252 209L250 209L247 209L247 210L246 210L247 211L248 212L248 212L249 213L249 214L245 214L244 216L244 216L244 217L244 218L241 215L239 214L237 213L235 213L233 214L232 215L230 214L228 213L225 212L223 212L220 210L218 209L217 208L215 208L212 207L211 206L208 204L207 202L206 201L207 201L207 200L208 199L208 198L207 197L206 196L205 194L203 191L200 189L199 187L196 186L196 185L196 184L195 183L193 182L193 180L191 179L190 178L188 176L188 175L187 173L186 171L186 170L184 169L183 169L181 168L181 169L181 171L181 173L182 174L184 176L185 177L185 177L186 178L186 178L187 180L188 180L188 182L190 183L191 186L192 187L192 188L193 190L194 190L195 191L196 193L196 193L195 194L194 194L194 192L192 191L190 189L188 189L188 186L188 185L187 184L185 183L184 183L184 182L182 182L180 180L181 180L182 180L183 179L183 177L181 175L179 175L178 173L177 171L176 169L175 166ZM340 347L342 347L345 349L346 349L348 351L351 353L352 355L351 356L352 358L351 359L347 361L345 360L344 361L341 359L339 360L338 358L338 356L339 355L338 353L339 350L340 347ZM352 358L351 356L352 355L351 353L348 351L346 349L345 349L342 347L340 347L344 343L347 341L349 339L351 338L351 335L350 334L348 334L349 333L349 331L349 329L348 329L347 329L346 329L346 328L346 325L345 325L343 324L342 324L339 324L339 320L338 318L339 318L339 316L340 315L340 313L340 311L338 310L338 309L338 307L333 307L332 304L333 304L333 302L332 301L332 300L330 299L329 299L327 298L326 298L324 296L321 296L318 293L319 291L318 290L319 288L315 289L313 290L311 291L310 292L309 292L307 292L305 292L304 292L304 287L302 289L299 289L298 288L297 287L297 286L296 284L294 282L295 281L295 280L297 279L297 278L297 277L298 275L301 273L303 273L303 272L306 272L307 264L307 263L307 262L305 261L306 258L307 258L308 258L308 257L306 257L306 255L311 255L312 254L313 255L314 257L314 256L316 258L318 258L318 257L321 256L322 256L322 254L324 254L324 253L321 253L321 251L321 249L320 248L320 248L323 248L325 249L326 248L328 248L331 247L332 246L331 245L333 245L333 246L333 247L334 247L335 249L334 250L333 252L334 254L334 255L336 256L337 256L338 256L339 256L340 255L341 254L342 255L343 255L344 255L345 254L344 254L345 253L346 253L347 253L349 253L350 254L351 253L351 253L352 254L353 254L354 253L355 251L357 248L357 248L358 249L360 255L361 255L361 257L359 259L360 260L365 261L365 264L367 262L371 263L375 264L377 266L376 268L379 267L385 268L389 268L393 271L397 274L399 275L401 275L402 276L403 279L404 281L402 286L401 288L397 292L395 295L393 298L393 298L392 300L392 305L391 310L391 312L390 313L390 317L387 320L386 323L384 325L383 326L380 326L376 327L374 329L371 330L368 332L365 335L365 337L365 339L365 341L364 343L362 344L359 350L357 352L355 353L354 356L352 358ZM307 292L309 292L310 292L311 291L313 290L315 289L319 288L318 290L319 291L318 293L321 296L324 296L326 298L327 298L329 299L330 299L332 300L332 301L333 302L333 304L332 304L333 307L338 307L338 309L338 310L340 311L340 313L340 315L339 316L339 318L338 318L338 317L336 316L333 316L328 317L327 319L327 321L326 324L325 324L322 324L321 326L320 324L316 323L314 326L312 326L311 322L309 319L310 316L308 315L308 313L307 311L308 308L307 305L308 304L307 303L308 302L309 299L309 297L309 296L307 292ZM306 272L303 272L303 273L301 273L298 275L297 277L297 278L297 279L295 280L295 281L294 282L296 284L297 286L297 287L298 288L299 289L302 289L304 287L304 292L305 292L307 292L309 296L309 297L309 299L308 302L307 303L308 304L307 305L308 308L307 311L306 312L305 313L302 311L301 310L296 307L291 304L289 302L288 300L288 299L286 295L283 290L280 284L279 283L278 281L276 279L274 278L275 276L274 274L275 272L277 270L277 271L276 272L277 273L278 273L279 273L280 274L282 273L282 271L284 269L287 268L290 265L291 263L291 260L291 260L293 262L294 263L295 264L297 267L299 267L301 266L302 267L303 267L305 268L304 271L304 271L306 272ZM314 256L314 257L313 255L312 254L311 255L306 255L306 257L308 257L308 258L307 258L306 258L305 261L307 262L307 263L307 264L306 272L304 271L304 271L305 268L303 267L302 267L301 266L299 267L297 267L295 264L294 263L293 262L291 260L291 260L289 260L288 259L287 259L285 259L284 258L284 258L281 256L281 255L282 255L281 253L282 252L284 252L285 250L286 249L285 248L285 247L285 244L285 243L285 241L284 239L284 238L285 238L285 237L285 235L285 235L287 235L289 233L290 233L290 232L290 229L292 228L294 228L294 227L296 228L298 226L299 225L301 224L302 224L302 225L302 226L300 226L299 228L298 229L297 230L297 232L296 234L298 234L298 235L299 236L299 237L299 238L299 239L299 239L300 240L304 240L305 240L307 242L308 242L310 242L312 242L313 242L312 244L312 245L312 247L312 249L313 250L313 250L312 252L313 252L313 253L314 256ZM285 235L285 235L285 237L285 238L284 238L284 239L283 238L282 237L283 236L282 236L282 235L280 234L279 234L278 235L277 236L277 236L276 237L278 238L277 239L277 239L275 239L275 237L274 238L274 238L273 237L272 236L271 236L270 236L270 237L270 236L270 236L270 235L270 235L270 234L270 234L270 233L271 232L272 233L272 234L273 234L273 234L274 235L275 234L276 234L278 233L279 232L280 232L280 233L282 233L283 233L284 234L285 235ZM271 232L270 233L270 234L270 234L270 235L270 235L270 236L270 236L268 236L267 235L268 234L268 234L267 233L266 233L265 232L265 231L264 231L264 232L264 232L263 232L262 231L262 231L262 230L262 229L261 229L262 228L262 228L264 228L265 228L266 228L266 229L267 229L268 228L268 230L269 231L271 232ZM268 228L267 229L266 229L266 228L265 228L264 228L262 228L262 228L261 227L260 226L259 225L258 224L256 223L257 222L257 223L257 222L258 222L259 222L259 222L259 220L260 220L260 220L261 219L262 220L262 220L262 219L263 219L263 218L264 218L264 217L264 217L265 218L265 218L266 217L267 217L268 217L268 217L269 217L269 217L269 218L269 219L268 220L268 221L268 222L268 223L268 224L268 224L267 226L268 226L267 227L267 228L268 228ZM269 217L268 217L268 217L267 217L266 217L265 218L265 218L264 217L264 217L264 218L263 218L263 219L262 219L262 220L262 220L261 219L260 220L260 220L259 220L259 222L259 222L258 222L257 222L257 222L256 221L256 220L256 220L255 220L254 220L254 220L253 219L253 219L252 218L252 218L252 217L252 216L254 216L255 215L255 215L256 214L257 214L257 214L257 214L259 214L260 214L261 214L261 214L262 214L263 214L263 214L264 214L265 214L266 214L266 215L267 215L268 216L269 217ZM252 218L253 219L253 219L254 220L254 220L255 220L256 220L256 220L256 221L256 222L254 222L253 222L252 221L251 221L250 220L250 220L251 219L251 219L251 219L252 218ZM244 218L244 217L244 216L244 216L245 214L249 214L249 213L248 212L248 212L247 211L246 210L247 210L247 209L250 209L252 209L252 211L252 214L253 214L254 215L254 214L255 215L254 216L252 216L252 217L252 218L252 218L251 219L251 219L251 219L250 220L250 220L248 220L247 220L245 219L244 218ZM252 209L252 208L253 208L253 208L254 207L255 207L255 207L255 207L255 208L255 209L255 209L255 211L255 211L255 212L254 213L254 213L253 214L252 214L252 211L252 209ZM331 245L332 246L331 247L328 248L326 248L325 249L323 248L320 248L320 248L321 249L321 251L321 253L324 253L324 254L322 254L322 256L321 256L318 257L318 258L316 258L314 256L313 253L313 252L312 252L313 250L313 250L312 249L312 247L312 245L312 244L313 242L312 242L310 242L308 242L307 242L305 240L304 240L300 240L299 239L299 239L299 238L299 237L299 236L298 235L298 234L296 234L297 232L297 230L298 229L299 228L300 226L302 226L302 227L300 227L301 228L301 230L300 231L301 234L302 234L303 232L302 230L302 228L305 227L305 226L306 225L307 227L309 227L310 229L311 230L313 230L316 229L318 231L320 231L321 230L321 229L325 229L328 229L326 230L327 231L329 231L331 233L331 235L333 235L334 236L332 238L332 239L333 240L332 240L330 241L330 242L329 243L331 245ZM343 255L342 255L341 254L340 255L339 256L338 256L337 256L336 256L334 255L334 254L333 252L334 250L335 249L334 247L333 247L333 246L333 245L331 245L329 243L330 242L330 241L332 240L333 240L332 239L332 238L334 236L336 237L338 239L338 240L339 240L340 242L341 243L341 245L339 246L339 247L339 248L340 250L341 250L341 252L343 255ZM349 253L347 253L346 253L345 253L344 254L345 254L344 255L343 255L341 252L341 250L340 250L339 248L339 247L339 246L341 245L341 243L345 243L345 243L347 243L350 243L349 246L349 248L350 250L349 251L349 252L349 253ZM357 248L355 251L354 253L353 254L352 254L351 253L351 253L350 254L349 253L349 252L349 251L350 250L349 248L349 246L350 243L351 244L353 244L356 247L357 248ZM517 117L518 118L522 118L521 120L521 122L520 123L519 123L519 123L517 125L517 126L518 126L519 127L519 128L520 129L519 130L519 132L521 133L521 134L518 135L513 135L509 136L508 137L505 138L502 136L501 137L496 136L495 135L496 133L497 127L494 124L492 123L488 121L487 119L491 119L496 119L495 116L497 117L504 115L505 113L507 112L507 113L509 113L510 114L512 116L513 116L516 117L516 117L517 117ZM524 137L526 136L527 138L526 140L524 140L524 138L524 137ZM291 260L291 263L290 265L287 268L284 269L282 271L282 273L280 274L279 273L278 273L277 273L276 272L277 271L277 270L278 268L278 266L277 268L275 266L276 266L275 263L276 263L277 261L278 259L278 258L279 257L281 256L284 258L284 258L285 259L287 259L288 259L289 260L291 260ZM316 207L317 207L318 207L317 208L315 208L313 208L313 207L314 206L316 207ZM285 207L286 207L288 208L288 208L286 208L286 209L284 208L282 207L283 207L284 206L285 207ZM271 193L274 193L276 193L279 194L280 195L282 195L283 196L286 197L287 199L288 199L290 199L290 200L292 200L294 201L294 202L292 202L290 203L288 202L284 203L286 201L285 200L283 200L282 199L281 198L280 198L277 197L276 196L273 196L272 195L273 195L270 194L268 196L267 196L267 197L265 197L264 197L265 196L266 195L267 194L269 194L271 193L271 193ZM587 324L585 324L584 324L583 324L582 324L580 323L578 322L577 320L577 319L576 319L573 316L572 314L571 314L570 311L573 312L574 312L575 312L577 310L579 308L580 307L580 306L582 305L584 305L584 306L587 306L588 306L588 307L590 307L591 308L591 312L591 314L591 316L591 317L591 319L590 319L590 321L587 324ZM582 324L578 326L575 328L574 330L574 331L572 331L572 333L571 334L570 334L567 334L566 333L565 333L563 334L563 335L561 336L560 337L558 338L557 336L558 335L556 332L555 332L555 323L558 323L558 313L560 313L564 312L565 313L567 312L568 312L570 311L570 311L571 314L572 314L573 316L576 319L577 319L577 320L578 322L580 323L582 324ZM555 332L555 342L553 344L551 344L550 343L548 343L548 342L547 341L545 343L543 340L542 338L542 335L541 333L540 329L540 325L540 324L539 323L537 320L536 317L535 315L533 312L533 310L534 309L536 309L537 309L539 310L539 310L551 310L553 311L559 312L564 311L567 310L569 310L570 311L570 311L568 312L567 312L565 313L564 312L560 313L558 313L558 323L555 323L555 332ZM454 221L452 218L451 217L452 217L454 215L454 213L455 212L457 213L458 212L460 212L461 213L463 214L464 216L466 218L466 220L467 221L468 222L468 223L468 224L468 224L466 224L466 224L465 224L463 224L462 224L457 224L456 224L455 224L454 224L453 222L456 222L456 222L457 222L458 221L459 222L460 222L462 221L461 220L460 221L459 221L458 220L457 220L457 221L454 221ZM468 224L468 223L468 222L467 221L466 220L466 218L467 217L468 216L468 215L470 216L472 216L473 216L473 215L485 215L485 213L485 213L483 200L482 188L486 188L496 194L505 200L506 202L507 203L509 203L509 205L512 205L512 211L510 213L510 215L508 215L504 216L503 217L501 217L499 217L499 216L497 217L494 218L494 219L492 220L491 221L490 221L489 221L488 222L488 224L485 226L486 227L485 228L485 230L484 230L483 231L483 230L482 230L481 230L481 231L479 231L478 230L478 231L477 230L477 229L477 228L476 229L476 228L477 227L476 226L475 225L475 224L474 224L473 225L473 225L472 226L471 226L470 225L469 225L469 225L468 225L468 224ZM453 199L453 198L464 198L464 194L464 193L467 192L467 185L476 185L476 181L486 188L482 188L483 200L485 213L485 213L485 215L473 215L473 216L472 216L470 216L468 215L468 216L467 217L466 218L464 216L463 214L461 213L460 212L458 212L457 213L455 212L454 213L454 212L455 210L455 208L455 205L455 203L455 202L454 201L453 199ZM507 242L505 242L504 240L505 234L504 233L504 232L503 231L502 230L502 228L503 228L504 227L505 226L506 226L507 225L508 225L510 226L510 227L511 229L510 230L510 231L509 233L508 234L508 235L508 237L507 242ZM541 194L542 198L543 199L543 200L544 201L544 202L543 208L542 212L539 215L538 218L539 220L539 221L541 221L540 223L539 223L539 224L539 224L537 221L536 221L534 222L532 221L531 221L530 222L528 222L526 223L525 223L522 221L520 222L519 222L518 221L515 220L512 220L511 221L511 223L510 224L510 226L508 225L507 225L506 226L506 224L503 223L503 221L501 220L501 218L501 217L503 217L504 216L508 215L510 215L510 213L512 211L512 205L516 203L524 198L533 192L538 193L539 195L541 194ZM507 242L508 237L508 235L508 234L509 233L510 231L510 230L511 229L510 227L510 226L510 224L511 223L511 221L512 220L515 220L518 221L519 222L520 222L522 221L525 223L526 223L528 222L530 222L531 221L532 221L534 222L536 221L537 221L539 224L539 224L540 225L540 226L540 227L538 229L537 231L537 232L536 233L535 235L534 236L534 237L533 239L533 240L531 241L529 240L528 240L526 241L526 241L524 244L524 246L521 247L520 247L519 248L516 248L515 246L514 244L512 242L510 242L507 242ZM540 223L541 225L542 227L541 229L543 231L541 231L541 231L539 231L539 232L540 234L542 235L542 236L543 238L542 239L541 241L540 242L540 244L540 245L540 246L542 248L542 249L543 250L544 251L544 253L544 253L544 255L542 254L540 254L536 253L536 253L534 254L533 253L531 253L527 253L527 251L526 249L525 249L524 247L524 247L524 246L524 244L526 241L526 241L528 240L529 240L531 241L533 240L533 239L534 237L534 236L535 235L536 233L537 232L537 231L538 229L540 227L540 226L540 225L539 224L539 223L540 223ZM502 228L502 230L503 231L504 232L504 233L505 234L504 240L505 242L503 243L502 242L502 240L501 239L502 236L501 235L501 233L501 231L500 229L500 228L502 228ZM500 228L500 229L501 231L501 233L501 235L502 236L501 239L502 240L502 242L503 243L499 245L497 246L495 246L492 246L492 244L491 242L492 239L493 236L492 232L492 230L492 228L497 228L498 228L499 228L500 228ZM478 231L478 230L479 231L481 231L481 230L482 230L483 230L483 231L484 230L485 230L486 231L487 232L488 232L489 232L490 231L492 232L493 236L492 239L491 242L492 244L492 246L491 246L489 245L487 245L484 246L482 246L479 247L479 247L479 245L479 245L479 244L478 242L477 242L476 241L477 240L476 239L477 238L477 238L477 237L477 236L477 236L478 235L478 233L477 232L477 231L478 231ZM462 224L463 224L465 224L466 224L466 224L468 224L468 224L468 225L469 225L469 225L470 225L471 226L472 226L473 225L473 225L474 224L475 224L475 225L476 226L477 227L476 228L476 229L477 228L477 229L477 230L478 231L477 231L477 232L478 233L478 235L477 236L477 236L477 237L477 238L477 238L476 238L475 239L474 239L474 238L474 237L473 235L472 236L472 236L471 236L471 235L470 234L470 233L470 232L469 231L467 231L466 232L465 232L465 232L465 233L463 234L462 233L461 231L460 231L460 230L459 229L459 229L458 228L459 227L460 227L461 226L461 226L462 226L462 225L462 225L462 224ZM454 224L455 224L456 224L457 224L462 224L462 225L462 225L462 226L461 226L461 226L460 227L459 227L458 228L456 227L455 227L455 226L455 225L454 225L454 224ZM477 238L476 239L477 240L476 241L477 242L478 242L479 244L479 245L479 245L479 247L478 247L475 246L472 244L470 242L468 240L469 239L469 239L470 237L472 236L472 236L473 235L474 237L474 238L474 239L475 239L476 238L477 238ZM463 234L465 233L465 232L465 232L466 232L467 231L469 231L470 232L470 233L470 234L471 235L471 236L472 236L470 237L469 239L469 239L468 240L467 240L465 239L464 237L464 236L463 234ZM485 230L485 228L486 227L485 226L488 224L488 222L489 221L490 221L491 221L492 220L494 219L494 218L497 217L499 216L499 217L501 217L501 218L501 220L503 221L503 223L506 224L506 226L505 226L504 227L503 228L502 228L500 228L499 228L498 228L497 228L492 228L492 230L492 232L490 231L489 232L488 232L487 232L486 231L485 230ZM576 245L575 245L573 245L571 245L570 245L570 246L569 246L568 245L565 247L563 246L563 247L562 248L560 248L558 248L556 246L554 245L553 246L552 248L551 250L549 250L548 249L546 251L544 253L544 253L544 251L543 250L542 249L542 248L540 246L540 245L540 244L540 242L541 241L542 239L545 238L545 238L546 238L546 238L550 237L551 236L553 235L552 234L553 234L556 234L558 233L560 229L562 228L564 228L564 229L565 231L565 232L565 233L565 234L566 235L568 236L570 237L570 238L572 240L573 241L574 243L576 244L576 245ZM551 250L551 252L550 253L550 255L549 258L550 259L549 260L549 261L549 262L547 264L546 265L544 268L544 270L544 271L542 273L541 274L539 274L539 273L538 273L537 274L536 274L535 273L534 273L533 275L531 271L533 270L532 268L533 267L535 267L535 266L536 267L539 267L540 266L540 264L540 262L538 260L540 257L539 256L537 256L536 255L536 253L540 254L542 254L544 255L544 253L546 251L548 249L549 250L551 250ZM531 253L533 253L534 254L536 253L536 253L536 255L537 256L539 256L540 257L538 260L540 262L540 264L540 266L539 267L536 267L535 266L535 267L533 267L532 268L533 270L531 271L528 269L526 266L524 263L525 262L525 261L526 259L526 257L527 257L531 257L531 253ZM527 253L531 253L531 257L527 257L526 257L526 257L527 253ZM585 284L587 285L588 285L589 286L591 287L592 288L593 290L593 291L592 294L593 296L592 297L591 300L592 300L584 303L584 305L582 305L580 306L580 307L579 308L577 310L575 312L574 312L573 312L570 311L570 311L570 311L569 310L567 310L564 311L563 309L561 306L561 297L567 297L566 296L567 295L566 294L567 292L566 292L567 292L568 293L569 292L571 293L572 294L574 294L575 294L576 295L578 295L579 297L580 298L582 298L582 295L582 296L580 295L579 294L579 291L580 288L579 286L580 285L581 284L584 284L585 284ZM591 287L594 287L594 288L595 289L596 293L595 295L596 299L597 299L598 300L599 302L599 306L598 307L597 309L596 307L595 305L596 303L596 302L595 301L594 302L592 300L591 300L592 297L593 296L592 294L593 291L593 290L592 288L591 287ZM596 293L598 293L601 294L602 293L604 293L605 293L607 293L610 291L612 290L612 290L612 290L612 291L612 294L613 297L613 301L613 302L612 305L611 307L610 308L607 309L604 311L601 314L600 314L598 316L597 317L596 319L598 321L598 323L598 324L599 324L599 327L598 328L599 328L598 330L597 331L595 332L592 333L590 334L591 336L591 336L591 337L589 337L589 336L588 335L588 334L589 330L588 328L587 324L590 321L590 319L591 319L591 317L591 316L591 314L591 312L591 308L590 307L588 307L588 306L587 306L584 306L584 305L584 303L592 300L594 302L595 301L596 302L596 303L595 305L596 307L597 309L598 307L599 306L599 302L598 300L597 299L596 299L595 295L596 293ZM589 337L589 339L587 339L585 337L585 336L586 335L586 334L587 334L588 335L589 336L589 337ZM536 274L535 274L535 275L535 276L534 277L533 275L534 273L535 273L536 274ZM534 278L535 277L536 277L537 277L545 277L546 279L547 281L547 282L549 283L550 283L551 283L553 283L553 282L554 281L556 281L556 280L557 280L557 281L560 281L560 283L561 284L561 286L561 288L562 289L562 292L562 292L563 292L565 291L566 292L567 292L566 294L567 295L566 296L567 297L561 297L561 306L563 309L564 311L559 312L553 311L551 310L539 310L539 310L537 309L536 309L534 309L533 310L532 308L533 306L534 303L534 302L535 299L535 298L537 296L538 295L538 293L538 291L537 290L536 288L536 286L536 286L537 285L536 282L535 280L534 278L534 278ZM585 267L585 268L585 269L585 270L585 270L584 272L583 273L581 273L581 270L581 268L582 268L583 267L585 267ZM599 166L599 166L598 166L597 168L598 168L597 169L597 169L598 169L598 170L597 175L597 174L595 170L595 170L595 170L596 169L596 169L597 167L597 165L597 164L598 164L599 164L599 164L600 164L600 165L599 165L599 166ZM600 164L599 164L599 164L598 164L599 162L600 160L600 160L601 160L602 161L600 162L600 164ZM638 296L638 297L639 299L639 303L640 304L640 305L639 306L639 305L638 305L639 308L638 309L637 309L637 312L636 315L635 319L633 325L632 329L631 332L629 333L626 334L625 333L622 332L622 331L621 328L620 326L620 324L621 322L622 321L622 320L623 318L624 316L623 315L622 313L622 310L623 309L623 307L625 307L626 306L627 306L629 306L630 304L633 302L633 301L633 299L634 300L636 298L636 296L637 295L638 296ZM598 169L597 169L597 169L598 168L597 168L598 166L599 166L599 168L598 169ZM454 221L457 221L457 220L458 220L459 221L460 221L461 220L462 221L460 222L459 222L458 221L457 222L456 222L456 222L453 222L454 221ZM526 172L525 167L523 166L523 165L521 164L521 161L523 160L523 158L523 155L523 153L526 152L528 152L528 154L531 153L531 153L529 155L529 156L530 157L530 159L528 161L529 162L530 162L531 164L532 164L532 166L530 167L530 168L528 169L528 171L528 172L526 172ZM476 181L476 180L476 180L476 177L480 175L483 174L485 173L487 172L490 171L490 169L491 168L493 167L496 167L497 166L496 165L495 162L495 160L494 158L497 157L500 156L501 155L504 154L509 154L513 154L515 154L517 153L520 153L521 153L523 153L523 155L523 158L523 160L521 161L521 164L523 165L523 166L525 167L526 172L527 175L527 176L527 179L527 180L527 182L527 183L526 185L528 187L528 188L529 190L530 189L532 190L533 192L524 198L516 203L512 205L509 205L509 203L507 203L506 202L505 200L496 194L486 188L476 181ZM599 166L599 166L602 167L608 164L609 167L608 168L603 169L606 172L605 172L604 173L602 174L601 175L600 176L597 175L597 175L598 170L598 169L599 168L599 166ZM643 190L644 190L644 191L646 190L648 190L650 190L652 188L654 187L656 185L656 186L657 188L655 188L655 190L656 190L654 191L654 192L653 193L653 194L653 195L644 194L643 191L643 190ZM641 188L641 186L642 185L642 185L643 185L643 187L643 189L642 189L641 188ZM633 173L634 175L634 175L634 178L633 178L632 176L629 176L631 173L633 173ZM609 167L608 164L614 161L615 157L615 155L616 154L618 152L619 152L622 152L623 153L624 153L626 156L628 157L628 159L627 160L626 162L628 165L631 166L633 168L632 170L633 170L633 172L635 174L633 173L631 173L629 176L624 176L616 170L612 168L609 167ZM653 194L653 193L654 192L654 191L656 190L655 190L655 188L657 188L658 190L659 191L661 191L663 192L664 194L665 195L666 195L666 196L665 197L665 198L664 199L662 201L661 201L661 202L660 203L661 205L660 205L659 205L657 206L657 208L656 208L655 208L654 209L654 210L652 211L651 211L649 212L648 212L647 210L644 205L653 202L655 196L653 194ZM656 186L656 185L657 184L657 184L657 185L656 186ZM964 306L966 308L965 308L964 307L964 306ZM963 305L963 304L963 302L964 303L965 305L964 305L963 305ZM785 225L784 221L786 219L790 218L792 219L795 220L796 218L798 219L799 221L799 224L794 227L795 228L792 229L790 230L787 229L786 228L785 225ZM792 219L790 218L786 219L784 221L785 225L782 223L780 224L780 221L778 221L778 224L776 229L775 231L776 233L777 233L779 236L779 239L781 240L782 241L784 242L783 243L781 244L781 242L778 241L778 241L777 240L776 239L775 237L774 236L773 237L773 236L773 234L774 231L775 228L777 226L776 223L776 222L775 220L773 218L773 216L774 216L775 213L774 211L772 209L770 207L772 206L773 203L775 203L777 202L778 201L779 202L779 204L781 204L781 207L781 209L784 208L784 208L786 208L787 207L789 207L791 210L791 213L793 215L793 217L792 219ZM798 219L796 218L795 220L792 219L793 217L793 215L791 213L791 210L789 207L787 207L786 208L784 208L784 208L781 209L781 207L781 204L779 204L779 202L778 201L779 200L781 198L781 199L783 199L782 196L784 195L785 197L787 200L790 200L791 203L789 203L789 204L792 206L794 209L796 212L798 214L799 216L798 219ZM778 201L777 202L775 203L773 203L772 206L770 207L772 209L774 211L775 213L774 216L773 216L773 218L775 220L776 222L776 223L777 226L775 228L774 231L773 229L774 227L773 225L774 222L773 221L772 217L771 213L770 211L768 213L765 215L763 214L762 214L763 210L762 207L760 204L760 203L759 203L757 200L756 198L757 198L757 196L759 196L759 194L759 193L759 190L761 191L763 189L763 187L764 185L764 183L768 181L770 182L770 180L771 179L770 178L772 178L773 180L774 181L774 183L774 185L771 188L771 191L774 190L775 193L776 194L776 196L778 197L779 198L781 197L781 198L779 200L778 201ZM790 230L792 229L795 228L794 227L799 224L799 221L798 219L799 216L798 214L796 212L794 209L792 206L789 204L789 203L791 203L790 200L787 200L785 197L784 195L785 194L788 194L790 194L793 193L794 194L796 194L796 196L797 197L800 198L796 200L794 203L794 205L796 208L798 212L801 214L802 216L804 221L803 226L801 228L798 230L796 232L792 235L791 233L792 231L790 230ZM863 138L863 138L863 138L863 138ZM863 138L863 138L863 138L862 138L861 139L860 140L860 142L859 143L858 143L857 144L855 144L854 145L854 146L854 147L855 147L857 148L856 149L855 149L853 149L852 151L851 151L850 151L849 150L849 151L848 151L848 151L847 150L846 150L847 149L848 148L848 148L848 146L848 146L846 145L845 145L847 143L851 141L852 139L854 140L856 140L856 139L860 137L861 136L863 138ZM850 151L851 151L852 151L853 149L855 149L856 149L857 148L859 152L860 154L860 157L859 159L856 159L854 160L851 161L851 159L852 157L850 154L852 153L850 151ZM744 118L747 117L752 115L756 113L759 114L762 114L763 116L766 116L770 116L773 114L772 113L775 110L778 111L780 111L784 112L784 114L788 115L791 115L794 114L797 115L800 116L801 118L804 118L807 118L810 117L814 117L818 115L819 115L821 116L824 116L823 118L821 121L822 122L823 122L826 122L828 121L830 122L833 124L832 125L830 125L826 125L824 126L822 128L818 129L815 131L812 130L811 130L809 132L810 133L811 134L809 135L807 136L803 137L799 137L795 138L792 140L790 139L787 139L783 137L780 137L776 137L771 137L768 137L766 135L765 132L763 132L760 130L756 130L753 129L752 128L753 125L751 122L747 121L744 120L744 118ZM770 178L771 179L770 180L770 182L768 181L764 183L764 185L763 187L763 189L761 191L759 190L759 193L759 194L759 196L757 196L756 192L755 192L755 194L753 192L754 190L755 190L757 188L755 187L752 187L750 187L750 185L748 185L746 184L745 186L747 187L745 188L745 189L746 190L746 192L747 194L747 196L747 197L745 197L742 198L742 200L740 202L736 204L733 207L731 209L728 211L728 212L727 213L724 214L723 214L722 216L723 220L723 222L722 225L722 230L720 230L719 232L720 233L717 234L717 236L715 237L713 234L711 230L710 227L709 226L708 223L707 220L707 218L704 214L703 208L702 205L702 201L702 198L698 200L696 200L692 196L693 195L693 194L689 192L691 190L697 190L697 187L695 186L695 183L693 182L696 179L699 179L702 176L704 173L707 171L707 168L709 167L707 165L706 163L705 161L706 160L710 160L714 160L716 157L719 161L719 163L720 165L720 166L718 166L719 169L721 171L725 173L724 174L722 177L725 178L728 179L731 181L735 181L737 183L739 183L742 184L745 184L745 183L745 181L745 179L746 179L747 181L747 182L749 183L751 182L753 183L756 182L756 181L755 180L757 179L759 177L763 175L765 176L767 175L768 177L767 178L770 178ZM757 196L757 198L756 198L757 200L756 199L756 197L755 196L754 194L751 194L752 195L751 197L750 196L749 197L748 197L747 196L747 194L746 192L746 190L745 189L745 188L747 187L745 186L746 184L748 185L750 185L750 187L752 187L755 187L757 188L755 190L754 190L753 192L755 194L755 192L756 192L757 196ZM755 180L756 181L756 182L753 183L751 182L749 183L747 182L747 181L749 179L750 178L752 179L753 179L755 180ZM745 179L745 181L745 183L745 184L742 184L739 183L737 183L735 181L731 181L728 179L725 178L722 177L724 174L725 173L726 172L729 173L731 175L733 175L734 177L736 177L738 179L742 179L745 179ZM716 157L714 160L710 160L706 160L705 161L706 163L707 165L709 167L707 168L707 171L704 173L702 176L699 179L696 179L693 182L695 183L695 186L697 187L697 190L691 190L689 192L687 191L687 189L684 187L679 187L675 187L671 188L672 184L676 183L676 181L674 181L674 178L672 177L670 175L669 174L674 175L677 175L678 175L679 175L681 175L684 174L684 171L686 170L688 170L688 169L690 168L691 169L693 168L692 166L694 164L695 164L694 162L697 162L698 161L698 160L699 158L699 157L698 156L700 155L703 154L706 154L707 153L709 153L711 154L712 156L716 157ZM685 152L686 152L688 153L689 153L691 152L692 153L693 151L695 151L695 151L695 150L697 149L698 149L698 150L699 150L698 153L700 154L701 153L702 153L704 152L705 152L708 152L709 153L707 153L706 154L703 154L700 155L698 156L699 157L699 158L698 160L698 161L697 162L694 162L695 164L694 164L692 166L693 168L691 169L690 168L688 169L688 170L686 170L684 171L684 174L681 175L679 175L678 175L677 175L674 175L669 174L672 171L671 169L669 169L669 167L668 165L669 163L668 163L669 161L670 157L673 158L675 158L676 156L678 156L679 155L680 153L682 152L683 151L684 152L685 152ZM688 153L690 150L689 148L687 147L688 146L690 146L692 144L693 142L696 142L696 143L696 144L697 144L696 145L693 144L693 146L696 146L699 147L705 146L705 149L706 148L708 149L708 150L708 152L705 152L704 152L702 153L701 153L700 154L698 153L699 150L698 150L698 149L697 149L695 150L695 151L695 151L693 151L692 153L691 152L689 153L688 153ZM697 138L698 137L700 136L704 137L705 136L706 135L710 136L711 136L716 136L720 136L721 137L723 138L723 138L718 140L717 141L714 141L713 143L710 143L708 143L705 145L705 145L705 146L699 147L696 146L693 146L693 144L696 145L697 144L699 144L703 142L700 140L698 141L696 140L698 138L697 138ZM646 139L647 138L650 138L652 139L654 141L655 141L659 141L658 139L661 138L663 136L667 138L667 140L668 141L671 141L672 141L673 144L676 146L678 148L681 149L685 150L685 152L684 152L683 151L682 152L680 153L679 155L678 156L676 156L675 158L673 158L670 157L670 155L668 154L665 152L662 152L659 150L657 150L656 150L654 150L652 152L650 153L649 150L650 147L648 146L648 145L646 144L647 142L650 143L652 142L650 140L649 138L647 139L647 141L646 139ZM635 174L633 172L633 170L632 170L633 168L631 166L628 165L626 162L627 160L628 159L628 157L626 156L624 153L624 153L623 150L623 149L623 146L624 145L625 146L626 148L628 148L629 148L632 146L634 146L634 146L633 148L635 149L636 149L637 151L639 152L641 153L645 154L650 153L650 153L652 152L654 150L656 150L657 150L659 150L662 152L665 152L668 154L670 155L670 157L669 161L668 163L669 163L668 165L669 167L669 169L671 169L672 171L669 174L670 175L672 177L674 178L674 181L676 181L676 183L672 184L671 188L666 187L663 186L659 186L658 182L657 182L655 182L652 184L649 183L646 180L643 179L641 177L639 173L638 173L636 172L635 174ZM599 166L599 165L600 165L600 164L600 162L602 161L601 160L600 160L600 158L600 157L601 156L602 155L602 154L603 154L606 153L607 154L610 154L613 153L614 153L618 152L616 154L615 155L615 157L614 161L608 164L602 167L599 166ZM629 148L628 148L627 146L627 146L626 146L625 145L624 145L623 144L621 144L622 142L621 141L625 141L625 142L627 142L626 143L627 144L627 145L628 146L629 146L629 148ZM531 90L532 88L534 86L535 83L533 81L533 78L535 75L538 75L539 74L538 73L542 69L545 66L547 64L549 64L550 62L555 62L556 60L557 60L561 62L565 64L565 68L566 69L562 70L559 72L559 74L555 76L550 79L548 83L550 85L552 86L550 90L547 90L546 95L544 98L541 98L539 100L536 100L535 97L533 94L531 90ZM578 98L581 98L582 99L583 99L586 100L586 101L585 102L587 104L588 104L588 105L590 105L591 106L590 107L587 106L587 107L588 108L588 109L588 109L586 110L585 110L585 112L584 111L581 112L581 111L579 111L578 111L576 111L573 110L570 110L568 110L567 111L565 111L565 110L564 108L566 108L566 107L565 106L565 104L568 104L571 103L572 102L574 101L574 99L575 99L578 98ZM588 109L589 110L590 109L591 109L594 109L596 110L595 111L595 112L597 112L598 113L598 114L602 115L604 114L606 116L607 116L611 117L611 118L610 119L611 121L610 122L608 122L606 123L606 124L604 124L602 125L600 125L597 126L597 128L597 128L596 127L596 127L594 126L593 127L592 127L588 126L588 125L585 125L584 127L582 129L581 129L580 129L578 129L579 128L580 127L580 126L580 126L581 126L581 126L583 126L583 126L583 126L583 125L582 124L582 123L581 123L581 122L580 121L578 121L576 120L575 120L574 121L573 121L572 121L570 122L569 122L568 121L566 121L564 121L563 122L563 121L561 120L562 119L563 118L563 118L563 117L565 115L566 114L567 114L565 111L567 111L568 110L570 110L573 110L576 111L578 111L579 111L581 111L581 112L584 111L585 112L585 110L586 110L588 109ZM565 104L565 106L566 107L566 108L564 108L565 110L565 111L567 114L566 114L565 115L563 117L563 118L563 118L560 117L558 117L557 117L555 118L554 117L553 117L552 117L551 116L549 115L549 115L547 114L546 115L545 114L545 114L543 113L542 112L541 111L541 110L540 108L539 107L540 106L539 105L541 104L545 103L549 102L552 102L552 103L555 103L558 103L563 103L565 103L565 104ZM547 121L547 122L545 122L546 123L545 125L544 125L542 125L541 126L538 126L534 125L534 124L531 124L531 125L529 125L528 124L526 124L527 123L527 123L527 123L529 123L529 123L532 123L534 122L535 122L536 123L536 122L536 120L537 120L538 119L540 120L541 119L542 118L545 119L546 119L547 120L547 120L547 121ZM561 120L563 121L563 122L561 122L560 124L558 126L556 127L554 127L552 127L552 127L551 128L549 127L547 126L546 126L545 125L545 125L546 123L545 122L547 122L547 121L549 122L550 122L552 122L552 121L553 121L555 121L555 121L556 120L557 120L558 120L561 120L561 120ZM574 121L575 120L576 120L578 121L580 121L581 122L581 123L582 123L582 124L583 125L583 126L583 126L583 126L581 126L581 126L580 126L580 126L580 127L579 128L578 129L578 127L578 126L578 125L577 123L576 122L575 121L574 121ZM578 129L580 129L581 129L582 129L582 130L581 131L580 130L579 134L578 133L576 132L572 133L571 134L567 134L565 133L564 133L563 132L562 132L563 131L562 131L562 132L560 131L560 129L558 129L558 128L556 127L558 126L560 124L561 122L563 122L564 121L566 121L568 121L569 122L570 122L572 121L573 121L574 121L575 121L576 122L577 123L578 125L578 126L578 127L578 129ZM574 99L574 101L572 102L571 103L568 104L565 104L565 103L563 103L563 102L563 102L562 101L559 101L558 98L562 97L566 97L569 97L569 98L571 98L574 99ZM576 94L577 95L577 96L578 98L575 99L574 99L571 98L569 98L569 97L566 97L562 97L558 98L559 96L560 94L563 93L565 95L567 95L568 93L570 93L571 93L574 94L576 94ZM578 88L578 88L578 89L576 90L577 93L576 94L574 94L571 93L570 93L568 93L568 91L567 92L565 91L565 89L568 88L572 88L575 88L578 88L578 88ZM539 105L540 106L539 107L540 108L541 110L541 111L542 112L540 113L540 112L539 113L537 113L536 114L534 115L534 116L535 117L536 118L538 119L537 120L536 120L536 122L536 123L535 122L534 122L532 123L529 123L529 123L527 123L527 123L524 122L523 122L521 122L521 120L522 118L518 118L517 117L517 116L517 115L517 113L517 110L518 110L519 109L520 106L519 105L520 105L522 105L523 105L524 104L524 103L524 101L526 102L528 101L528 102L530 103L530 104L533 103L535 103L538 104L539 105ZM563 132L564 133L565 133L567 134L571 134L572 133L576 132L578 133L579 134L578 135L577 137L578 139L575 138L573 139L573 141L570 141L568 140L566 141L564 141L564 139L562 138L563 137L562 137L563 136L564 135L563 134L562 133L563 132ZM573 158L573 159L569 159L569 159L565 158L566 157L567 158L570 158L572 158L572 158L573 158ZM564 141L566 141L568 140L570 141L573 141L573 139L574 140L573 142L572 142L571 142L569 142L566 142L568 144L566 145L565 145L563 143L563 144L563 145L565 147L564 147L565 149L567 150L567 151L564 150L565 152L563 152L564 155L562 155L560 154L559 151L559 149L558 148L556 146L556 146L557 144L557 143L558 143L558 142L560 142L561 141L563 141L563 141L564 141ZM624 153L623 153L622 152L619 152L618 152L614 153L613 153L610 154L607 154L606 153L603 154L602 154L602 155L601 156L600 157L599 155L600 154L599 154L596 154L595 155L590 156L588 154L585 154L584 155L582 156L580 154L577 154L575 151L573 150L574 147L573 146L576 143L580 143L581 141L587 141L590 139L593 139L598 139L603 141L607 142L610 141L612 142L615 140L618 140L621 141L622 142L621 144L623 144L624 145L623 146L623 149L623 150L624 153L624 153ZM573 139L575 138L578 139L578 140L581 141L580 141L577 142L576 142L573 144L572 143L572 142L573 142L574 140L573 139ZM558 142L558 143L557 143L557 144L556 146L556 145L555 145L554 144L554 142L554 140L554 139L554 139L554 139L554 138L555 137L555 137L556 137L556 138L557 138L557 139L557 139L557 140L557 141L558 142ZM546 126L547 126L549 127L551 128L552 127L553 128L554 129L553 130L552 130L550 130L547 129L546 129L545 130L544 129L544 131L545 132L546 133L547 134L548 134L549 136L552 137L551 137L551 137L549 136L547 135L544 134L542 132L543 132L541 131L541 130L540 129L539 131L538 130L538 129L538 129L540 129L541 128L541 129L543 129L543 128L544 128L544 126L546 126ZM527 123L527 123L526 124L528 124L529 125L529 126L528 126L526 126L525 127L524 127L523 127L522 128L520 128L519 127L518 126L517 126L517 125L519 123L519 123L520 123L521 122L523 122L524 122L527 123ZM517 115L517 116L517 117L516 117L516 117L516 115L517 115ZM517 113L517 115L516 115L516 117L513 116L512 116L510 114L509 113L507 113L507 112L509 112L509 112L509 112L511 112L514 111L516 113L517 113ZM519 105L520 106L519 109L518 110L517 110L517 113L516 113L514 111L511 112L509 112L509 112L511 111L513 107L517 105L519 105ZM475 139L476 138L477 138L478 139L479 139L480 139L481 139L482 140L481 141L481 143L480 144L480 145L479 146L480 147L480 149L480 150L480 151L479 152L479 153L478 154L477 153L475 153L476 151L475 149L474 149L474 148L474 146L475 145L475 144L476 142L476 141L475 140L475 139ZM479 153L479 152L480 151L480 150L480 149L480 147L479 146L480 145L480 144L481 143L481 141L482 140L481 139L480 139L479 139L478 139L477 138L476 138L475 139L475 137L474 136L478 134L481 134L485 134L488 135L490 134L495 135L496 136L501 137L502 136L505 138L508 137L508 139L506 141L502 142L502 142L500 144L499 146L500 148L499 149L498 151L496 152L494 154L491 154L488 154L486 155L485 156L484 156L483 155L482 153L479 153ZM483 104L483 106L481 109L476 111L472 110L475 107L473 104L477 102L479 101L480 102L479 104L481 104L483 104ZM960 321L963 323L964 324L963 325L962 324L960 323L958 321L956 319L956 318L957 318L958 319L960 320L960 321ZM950 290L951 291L949 291L948 289L950 290L950 290ZM949 288L949 288L947 286L946 284L947 284L948 286L949 288ZM947 289L946 289L944 288L943 288L944 287L945 287L946 288L947 289ZM943 283L944 284L944 285L942 283L941 282L939 281L940 281L941 282L943 283ZM937 280L938 281L937 281L936 281L935 280L935 279L937 280ZM991 376L990 377L989 379L987 380L986 380L985 379L987 377L986 375L983 374L983 373L985 372L985 370L985 368L984 366L984 366L983 364L981 362L980 360L981 360L982 361L984 362L985 364L987 367L987 366L988 366L989 368L991 369L993 370L994 369L996 369L995 371L994 373L992 373L991 374L992 375L991 376ZM971 386L974 384L975 383L977 381L978 380L978 378L980 377L981 378L981 379L983 378L984 379L984 381L983 382L981 384L980 385L981 387L979 387L976 388L976 390L974 393L972 394L970 395L968 395L966 394L963 394L963 392L964 390L968 387L969 387L971 386ZM910 378L912 378L912 382L911 383L911 385L910 384L908 386L907 386L906 386L904 383L904 381L902 379L902 378L904 378L907 379L908 378L910 378ZM850 353L847 355L845 355L845 357L843 358L841 358L839 358L837 358L835 358L833 358L831 360L831 360L829 360L828 361L826 361L824 361L821 359L820 359L820 357L821 357L821 356L821 355L822 353L821 351L820 348L819 347L820 345L818 343L818 342L817 341L817 339L815 337L815 335L816 337L815 334L816 335L817 336L817 334L816 332L816 331L815 330L815 329L816 328L816 327L816 325L817 323L817 325L818 323L821 322L822 321L824 320L825 320L826 320L828 319L830 319L831 318L831 318L833 318L836 317L837 316L838 314L840 313L840 311L840 310L842 307L843 310L844 309L843 308L844 307L845 307L845 305L847 304L848 302L849 302L849 301L850 301L850 301L852 300L853 300L855 301L857 303L858 303L860 303L859 302L861 299L862 299L862 298L863 296L865 295L866 296L868 295L868 294L866 293L868 292L869 293L871 294L873 295L874 294L876 295L877 295L878 295L879 294L880 296L880 297L879 298L878 298L878 300L877 301L876 303L876 303L879 305L881 306L882 307L884 309L885 309L886 309L887 310L889 311L891 310L892 309L892 307L893 306L894 303L893 302L893 301L893 300L893 297L894 297L894 296L894 294L895 293L895 292L896 291L897 292L897 294L898 294L898 296L899 297L899 299L899 300L900 302L902 301L902 302L904 303L904 305L904 307L905 308L905 309L906 311L906 313L907 315L910 316L912 318L913 319L913 320L915 321L916 325L917 324L918 325L919 325L919 328L921 330L922 331L925 333L925 335L925 337L925 339L927 341L926 344L926 345L925 348L925 349L925 351L923 354L921 355L920 358L919 359L919 362L918 363L917 365L917 367L917 368L915 369L912 369L909 370L908 372L906 373L904 371L902 371L903 369L901 370L899 372L897 371L895 371L893 371L891 370L889 368L888 366L888 364L886 363L884 363L885 361L884 359L883 361L880 362L882 360L882 359L883 357L883 355L881 358L879 358L878 361L876 360L876 358L874 356L872 355L873 354L869 352L867 352L865 351L860 351L856 352L853 353L850 353ZM727 238L727 241L726 242L723 243L722 240L721 236L723 232L725 233L726 235L727 238ZM804 207L802 207L802 204L803 203L806 202L808 202L808 203L807 204L806 206L804 207ZM723 138L723 136L725 135L722 130L728 129L729 128L731 123L737 124L738 123L738 120L741 120L743 118L744 118L744 120L747 121L751 122L753 125L752 128L753 129L756 130L760 130L763 132L765 132L766 135L768 137L771 137L776 137L780 137L783 137L787 139L790 139L792 140L795 138L799 137L803 137L807 136L809 135L811 134L810 133L809 132L811 130L812 130L815 131L818 129L822 128L824 126L826 125L830 125L832 125L833 124L830 122L828 121L826 122L823 122L822 122L821 121L823 118L824 116L827 117L831 115L831 114L834 111L835 110L835 108L834 108L836 106L840 106L843 106L847 106L850 107L852 110L853 112L854 113L855 116L859 117L863 119L864 122L868 122L870 121L875 120L874 123L873 124L872 127L870 130L866 129L864 130L865 133L864 136L863 136L863 138L861 136L860 137L856 139L856 140L854 140L852 139L851 141L847 143L845 145L841 145L839 147L836 148L838 146L837 145L839 143L838 142L835 143L832 145L831 147L828 147L826 148L828 150L830 151L830 152L833 153L836 151L838 152L840 152L840 153L836 154L835 156L832 157L831 159L834 161L835 164L837 166L839 168L839 171L837 171L838 173L839 174L839 176L838 178L836 179L834 182L832 186L830 189L826 192L822 194L819 195L817 196L816 195L815 196L811 198L808 198L807 201L805 201L805 199L805 198L801 197L800 198L797 197L796 196L796 194L794 194L793 193L790 194L788 194L785 194L784 195L782 196L783 199L781 199L781 198L781 197L779 198L778 197L776 196L776 194L775 193L774 190L771 191L771 188L774 185L774 183L774 181L773 180L772 178L770 178L767 178L768 177L767 175L765 176L763 175L759 177L757 179L755 180L753 179L752 179L750 178L749 179L747 181L746 179L745 179L742 179L738 179L736 177L734 177L733 175L731 175L729 173L726 172L725 173L721 171L719 169L718 166L720 166L720 165L719 163L719 161L716 157L712 156L711 154L709 153L708 152L708 150L708 149L706 148L705 149L705 146L705 145L705 145L708 143L710 143L713 143L714 141L717 141L718 140L723 138L723 138ZM838 190L837 194L835 197L834 194L834 192L835 189L837 187L839 188L838 190ZM529 125L531 125L531 124L534 124L534 125L538 126L538 127L539 128L537 128L534 129L534 130L534 131L535 133L538 134L539 136L542 139L544 139L545 139L544 140L547 141L549 142L551 143L551 144L551 145L549 144L547 143L546 145L548 146L547 148L546 148L545 150L544 150L544 150L544 148L545 147L544 146L543 144L542 144L541 143L539 142L538 141L536 141L534 140L531 138L529 136L528 133L527 133L525 132L523 132L522 134L521 134L521 133L519 132L519 130L520 129L519 128L519 127L520 128L522 128L523 127L524 127L525 127L526 126L528 126L529 126L529 125ZM541 150L543 150L542 152L543 153L542 154L540 153L538 153L535 151L535 150L538 150L541 150ZM524 142L526 141L527 143L527 147L526 147L524 148L523 147L523 143L523 142L524 142ZM528 101L526 102L524 101L523 100L522 97L523 96L524 95L526 95L527 94L529 93L529 95L528 96L529 96L530 97L530 98L529 98L527 100L528 101ZM534 98L535 99L534 102L531 100L530 99L534 98ZM483 104L481 104L479 104L480 102L479 101L481 101L484 102L483 104ZM491 106L491 106L492 104L490 102L490 102L487 102L486 101L487 100L486 99L484 100L484 97L483 96L484 93L486 91L488 91L492 91L489 94L492 93L495 93L494 96L491 98L494 98L494 99L497 102L499 103L501 106L501 107L505 108L504 109L503 110L504 112L502 113L498 113L493 114L492 114L490 115L487 115L485 116L484 115L488 112L491 111L490 111L486 111L485 110L488 109L487 107L487 105L491 106ZM460 68L459 70L462 72L459 74L451 76L448 77L445 76L437 75L440 74L433 73L438 72L438 71L432 70L434 69L439 68L443 70L447 69L451 69L455 68L460 68ZM629 139L630 139L632 141L633 141L633 140L635 139L636 141L638 143L639 143L640 144L638 144L637 146L637 147L636 148L636 149L635 149L633 148L634 146L634 146L632 146L629 148L629 146L628 146L627 145L627 144L626 143L627 142L625 142L625 141L626 140L628 141L629 141L630 141L628 139L629 139ZM628 148L626 148L625 146L624 145L625 145L626 146L627 146L627 146L628 148ZM611 135L611 134L614 135L618 135L622 137L622 137L624 137L626 137L627 138L629 139L628 139L630 141L629 141L628 141L626 140L625 141L621 141L618 140L615 140L616 139L615 137L614 136L612 135L611 135ZM836 223L834 221L837 221L838 222L837 225L836 223ZM841 231L841 230L842 229L843 228L843 230L845 228L844 230L843 231L843 233L842 234L840 232L841 231ZM851 236L851 238L851 239L851 242L850 239L848 240L849 243L848 244L845 242L844 240L845 239L843 237L842 239L841 238L839 240L839 239L840 237L842 236L843 235L844 236L846 235L847 234L849 234L848 232L851 233L851 235L851 236ZM829 233L825 236L827 234L829 232L831 230L832 227L832 230L831 231L829 233ZM840 207L839 209L840 211L840 213L838 214L838 216L838 219L840 219L841 219L844 220L844 222L845 222L845 224L842 222L841 221L841 222L839 220L836 221L835 220L835 219L836 218L835 217L835 218L834 217L833 215L833 213L834 214L834 209L835 207L837 207L839 207L840 207L840 207ZM839 227L839 226L840 227L842 227L842 228L841 229L839 230L839 228L839 227ZM849 225L849 228L847 227L847 228L848 230L847 231L847 229L846 229L845 227L847 227L847 226L845 224L848 224L849 225ZM778 241L778 241L781 242L781 244L783 243L784 242L784 242L786 244L787 246L787 248L787 249L787 250L788 252L788 253L790 255L790 256L788 256L785 254L782 252L781 251L780 249L779 246L778 245L779 243L778 241ZM827 248L825 248L822 248L821 251L820 252L818 256L816 256L813 256L812 256L811 257L809 257L807 258L805 256L805 254L807 255L809 255L809 252L811 252L814 251L816 249L817 247L818 248L819 247L820 248L821 246L821 244L823 242L824 240L825 240L827 241L827 243L829 244L831 244L831 246L829 246L829 247L827 248ZM821 244L821 246L820 248L819 247L818 248L817 247L818 246L821 244ZM538 126L541 126L542 125L544 125L545 125L545 125L546 126L544 126L544 128L543 128L543 129L541 129L541 128L540 129L538 129L539 128L538 127L538 126ZM579 60L579 63L583 64L581 67L584 70L582 72L585 75L583 76L588 78L586 80L584 82L578 85L578 85L578 85L573 85L568 87L564 87L562 86L559 85L560 82L558 79L560 77L562 76L569 73L571 72L570 71L566 69L565 68L565 64L561 62L557 60L559 60L562 61L566 61L569 62L571 60L573 58L577 57L581 58L579 60ZM563 118L562 119L561 120L561 120L558 120L557 120L556 120L555 121L555 121L553 121L552 121L552 122L550 122L549 122L547 121L547 120L547 120L548 119L549 119L550 119L550 118L550 118L550 118L551 118L552 117L552 117L553 117L554 117L555 118L557 117L558 117L560 117L563 118ZM542 112L543 113L545 114L545 114L546 115L547 114L549 115L549 115L551 116L552 117L552 117L551 118L550 118L550 118L550 118L550 119L549 119L548 119L547 120L546 119L545 119L542 118L541 119L540 120L538 119L536 118L535 117L534 116L534 115L536 114L537 113L539 113L540 112L540 113L542 112ZM601 218L601 217L602 213L602 211L603 210L605 210L607 208L608 211L609 214L611 215L614 218L616 220L617 221L618 222L620 223L619 224L618 224L617 223L616 221L614 220L614 219L611 218L609 218L609 217L607 218L605 217L604 219L601 218ZM894 147L892 150L892 153L891 155L891 156L890 158L886 160L881 160L877 163L875 162L875 160L870 161L867 162L864 162L867 164L865 169L863 170L862 169L862 167L861 166L859 164L862 163L864 161L866 160L868 158L874 157L877 157L880 152L882 154L886 151L887 150L889 146L889 143L890 141L893 140L894 144L894 147ZM902 133L904 132L904 135L900 136L898 139L893 137L892 140L889 140L888 137L890 135L893 135L894 131L894 128L898 131L900 132L902 133ZM868 163L869 162L871 162L872 161L874 161L874 162L873 164L872 163L870 164L869 166L868 165L868 163ZM338 318L339 320L339 324L342 324L343 324L345 325L346 325L346 328L346 329L347 329L348 329L349 329L349 331L349 333L348 334L348 337L345 339L343 340L340 339L337 338L340 334L340 333L337 332L333 329L331 329L326 324L327 321L327 319L328 317L333 316L336 316L338 317L338 318ZM644 205L647 210L648 212L646 213L645 214L645 215L642 216L638 218L635 220L634 220L633 220L632 221L630 221L627 221L627 222L626 222L625 223L625 223L624 223L623 224L621 223L620 222L620 220L620 219L619 217L618 216L619 216L619 215L619 214L619 213L620 212L620 211L621 209L622 210L622 210L626 210L626 210L629 210L630 210L631 211L632 211L634 208L636 206L644 205ZM597 175L600 176L601 175L602 174L604 173L605 172L606 172L603 169L608 168L609 167L612 168L616 170L624 176L629 176L632 176L633 178L634 178L636 180L637 181L637 182L639 183L639 184L639 185L640 186L640 187L641 188L641 188L642 189L643 189L643 190L643 191L644 194L653 195L653 194L655 196L653 202L644 205L636 206L634 208L632 211L631 211L630 210L629 210L626 210L626 210L622 210L622 210L621 209L620 211L620 212L619 213L618 212L618 211L617 210L616 208L615 206L614 204L612 202L611 201L609 198L608 196L609 195L607 192L606 190L604 190L603 188L603 188L603 186L602 185L601 183L599 181L598 179L596 179L597 177L597 176L597 175ZM365 485L366 485L370 485L375 485L378 487L379 488L380 490L380 491L375 492L371 493L366 494L360 494L353 494L350 493L350 492L356 491L358 490L360 489L361 488L363 487L365 485L365 485ZM316 492L322 492L328 492L330 491L332 490L335 491L334 493L333 494L327 494L321 494L317 493L317 493L316 492ZM295 466L295 466L297 466L300 466L301 464L301 463L301 461L302 459L305 459L306 460L307 461L308 462L309 464L310 465L310 466L310 467L309 468L306 469L303 469L299 469L300 468L297 469L294 469L292 468L292 467L295 466ZM216 468L216 468L217 467L221 468L225 468L228 468L231 468L233 470L231 469L227 469L224 469L220 469L217 469L216 468ZM159 473L159 473L160 472L163 472L167 473L170 472L169 473L166 474L162 474L159 473ZM146 472L146 472L148 472L151 472L155 473L154 473L150 473L146 472ZM45 487L45 487L47 486L52 486L55 487L57 488L58 490L52 490L49 489L47 488L47 488L45 487ZM1000 505L1000 520L0 520L0 505L0 505L3 503L8 504L8 504L11 503L11 503L12 503L16 504L19 503L20 503L28 502L31 503L32 503L36 504L44 505L50 506L61 507L69 506L81 506L87 507L95 506L102 506L103 504L92 504L83 504L81 502L73 502L74 500L75 499L76 498L75 497L71 496L69 495L64 494L71 494L78 494L82 495L86 494L91 493L93 492L92 491L89 490L85 489L79 489L74 489L69 488L67 487L63 486L61 485L60 482L61 482L64 483L69 483L73 483L75 484L80 484L83 483L87 482L90 481L94 481L94 480L93 479L94 478L97 477L99 478L103 478L107 477L111 477L114 477L118 476L121 475L124 475L127 475L128 475L133 475L136 475L140 475L144 475L148 475L152 475L156 475L160 475L164 475L167 475L170 474L174 474L177 474L180 474L183 473L185 474L186 475L188 476L191 475L194 476L198 476L201 477L205 477L209 477L213 477L217 477L220 478L222 476L220 475L219 474L215 474L214 473L213 472L212 470L214 470L218 470L221 470L225 471L227 471L229 473L232 473L236 472L240 472L243 471L246 472L250 472L252 470L254 471L258 471L261 471L263 472L267 472L270 473L274 473L276 472L277 471L280 472L284 472L286 473L288 474L292 473L295 473L298 472L301 472L305 471L309 471L311 470L313 469L314 468L313 467L312 466L311 465L310 464L310 463L310 461L310 460L311 459L312 458L313 457L312 456L312 454L313 453L315 452L317 451L318 450L321 450L322 448L323 447L325 447L328 447L329 446L331 445L334 445L336 444L337 443L339 443L341 444L340 444L337 445L336 446L334 445L332 446L330 446L328 447L326 448L326 449L326 450L327 451L326 452L323 452L321 453L320 454L318 455L318 456L319 457L320 458L322 459L324 460L326 461L326 462L327 463L328 464L329 465L330 468L330 469L331 470L331 471L331 473L330 474L328 475L324 475L323 476L321 477L317 479L313 479L310 480L306 480L304 481L299 482L295 481L290 482L285 482L286 483L291 483L294 484L295 485L292 486L288 486L284 486L283 488L283 489L287 490L287 491L291 492L297 492L302 493L306 494L311 495L317 495L324 496L329 497L334 498L337 499L338 500L342 499L346 499L351 498L357 497L362 496L369 496L375 496L381 497L383 496L387 495L394 495L399 494L404 494L410 493L416 493L421 492L419 491L418 490L418 489L412 489L406 490L401 490L400 488L401 486L402 486L406 485L411 484L414 483L417 483L420 482L424 481L427 481L429 480L434 480L438 480L441 479L444 479L447 478L451 477L454 476L456 475L457 474L454 473L455 472L457 471L460 471L463 470L466 469L468 468L469 467L471 466L475 466L476 467L479 467L480 466L481 465L484 465L485 466L488 466L492 466L495 466L498 466L499 467L502 466L505 465L508 465L511 465L514 464L517 464L520 463L522 462L524 463L526 462L528 464L530 465L533 464L534 463L537 462L541 462L542 463L544 462L547 462L551 462L553 462L557 462L560 462L561 463L563 464L566 464L569 464L572 464L575 464L578 463L581 463L583 462L586 462L589 461L591 460L593 459L594 458L597 458L598 459L600 460L603 460L605 461L607 462L610 461L611 460L614 459L617 458L619 458L623 457L625 457L627 456L629 455L632 456L634 455L636 454L639 454L641 453L642 452L644 451L646 451L649 450L651 450L654 450L657 451L659 451L659 453L661 454L663 454L666 455L668 456L671 456L673 456L676 456L678 455L681 455L683 456L686 456L689 456L691 456L694 459L694 460L693 461L691 462L688 463L689 464L692 464L691 465L690 466L689 468L691 468L694 469L697 468L699 467L700 466L701 465L703 464L704 463L705 462L707 462L710 461L713 461L716 461L717 460L718 458L720 457L722 457L725 456L726 455L728 455L730 454L733 454L735 454L738 454L741 454L743 453L744 451L745 452L747 453L749 454L752 454L754 454L757 454L760 454L762 454L764 454L766 455L769 454L772 454L774 454L777 454L779 453L780 452L782 452L786 449L787 450L790 451L791 452L795 453L798 453L800 453L803 453L806 453L808 452L810 451L814 451L816 450L818 451L819 452L821 453L824 453L826 453L829 454L833 454L836 454L838 453L840 452L842 452L845 452L848 453L850 452L853 452L855 453L858 453L860 452L863 452L866 452L869 452L872 451L874 451L875 450L875 449L877 449L877 451L878 452L879 453L882 453L885 453L889 453L891 453L895 453L897 453L901 453L904 453L906 454L906 455L907 456L910 457L913 458L917 458L921 459L924 459L927 459L929 458L931 459L933 460L936 460L939 461L942 461L944 462L947 463L949 464L952 464L955 464L958 464L961 464L965 465L968 465L971 466L974 466L976 467L975 468L974 469L973 471L972 472L970 473L967 473L965 474L961 475L960 476L958 477L956 478L955 479L954 480L954 482L954 483L956 484L956 485L958 486L963 486L964 488L959 488L955 489L949 489L947 490L947 492L945 493L944 494L948 495L949 496L951 497L955 498L959 499L963 500L969 501L971 502L979 503L979 503L981 504L989 503L995 504L1000 505ZM591 158L591 158L592 158L594 158L596 157L594 158L594 159L594 159L594 159L593 159L593 159L593 159L593 158L592 158L591 159L591 158ZM591 158L591 159L592 158L593 158L593 159L593 159L593 159L594 159L594 159L594 159L594 159L592 160L590 160L590 159L591 158ZM494 158L495 160L495 162L496 165L497 166L496 167L493 167L491 168L490 169L490 171L487 172L485 173L483 174L480 175L476 177L476 180L476 180L476 182L474 182L473 182L472 182L471 182L468 182L467 185L467 185L465 188L461 192L460 196L459 197L459 198L453 198L453 198L453 197L454 196L455 194L455 194L456 191L457 190L458 189L459 187L459 186L460 184L462 183L464 180L464 180L465 179L468 179L470 177L471 176L473 174L473 170L474 167L474 166L476 164L479 163L481 161L483 158L484 157L486 157L487 158L490 158L493 158L494 158ZM602 196L591 196L581 196L569 196L569 186L569 176L569 173L569 171L569 170L570 169L574 169L576 170L579 170L580 171L582 170L584 169L586 169L588 169L589 171L589 170L592 170L594 171L595 170L595 170L597 174L597 175L596 176L596 178L595 180L594 180L593 179L592 178L590 174L590 174L591 177L593 180L595 184L596 186L597 188L599 191L599 191L599 193L602 196L602 196ZM569 196L569 202L566 202L566 203L555 198L544 192L541 194L539 195L538 193L533 192L532 190L530 189L529 190L528 188L528 187L526 185L527 183L527 182L527 180L527 179L527 176L527 175L526 172L528 172L528 171L528 169L530 168L530 167L532 166L532 164L535 165L536 165L539 165L542 167L544 169L546 170L550 171L553 173L554 172L556 170L555 168L556 167L558 166L560 165L564 166L565 167L566 167L566 168L569 168L570 169L569 170L569 171L569 173L569 176L569 186L569 196ZM633 237L625 246L621 246L619 248L617 248L616 249L614 249L613 248L611 249L610 250L608 250L607 250L607 250L606 250L602 247L600 247L599 246L599 245L598 244L596 241L595 240L595 239L593 238L592 238L592 236L594 236L594 235L594 232L595 229L596 228L597 227L598 225L600 224L601 221L601 218L604 219L605 217L607 218L609 217L609 218L611 218L614 219L614 220L616 221L617 223L618 224L617 225L616 226L616 227L616 228L618 228L618 228L619 228L618 229L619 231L620 232L621 233L630 237L633 237ZM618 224L619 224L620 223L620 224L620 225L619 226L620 227L619 228L618 228L618 228L616 228L616 227L616 226L617 225L618 224ZM636 227L636 227L636 227L636 228L636 231L636 233L635 234L633 237L630 237L621 233L620 232L619 231L618 229L619 228L620 227L621 227L621 229L623 230L624 230L627 229L630 229L632 228L633 228L634 227L636 227L636 227ZM594 263L589 263L585 263L584 263L583 264L582 264L582 262L583 261L583 258L584 257L585 255L586 255L587 254L585 253L586 250L586 250L587 249L589 250L591 249L593 249L594 248L596 250L596 251L597 254L596 257L595 259L594 260L594 263ZM584 263L586 265L585 267L585 267L585 267L583 267L582 268L581 268L581 267L581 266L581 265L582 264L583 264L584 263ZM552 137L549 136L548 134L547 134L546 133L545 132L544 131L544 129L545 130L546 129L547 129L550 130L552 130L553 130L553 130L554 130L553 132L554 133L554 134L553 134L553 135L552 135L552 137ZM562 138L564 139L564 141L563 141L563 141L561 141L560 142L558 142L557 141L557 140L557 139L557 139L558 139L558 139L559 138L560 138L561 138L562 138ZM552 127L552 127L554 127L556 127L558 128L558 129L560 129L560 131L562 132L562 131L563 131L562 132L563 132L562 133L563 134L564 135L563 136L562 137L563 137L562 138L561 138L560 138L560 138L560 137L560 137L560 137L560 136L559 136L559 136L558 135L558 135L557 135L557 136L556 136L556 136L555 135L555 135L554 135L553 134L554 134L554 133L553 132L554 130L553 130L553 130L554 129L553 128L552 127ZM556 137L555 137L555 137L554 138L554 139L553 139L552 138L551 137L552 137L552 135L553 135L553 134L554 135L555 135L555 135L556 136L556 136L556 137ZM557 139L557 138L556 138L556 137L556 136L557 136L557 135L558 135L558 135L559 136L559 136L560 136L560 137L560 137L560 137L560 138L560 138L559 138L558 139L558 139L557 139ZM329 229L330 229L331 229L331 231L328 231L328 231L329 230L329 229ZM586 250L583 248L583 247L581 247L580 247L579 248L578 247L576 245L576 244L574 243L573 241L572 240L570 238L570 237L568 236L566 235L567 235L568 234L569 232L570 230L572 230L572 231L574 232L574 233L575 232L577 232L578 233L580 233L581 232L582 232L582 231L583 230L586 232L587 232L588 230L590 228L590 226L589 225L591 225L591 225L592 225L592 227L592 229L594 230L594 231L594 233L594 233L594 235L594 236L592 236L592 238L593 238L595 239L595 240L596 241L598 244L596 246L594 248L593 249L591 249L589 250L587 249L586 250Z" fill="#7d8590" fill-opacity="0.38" stroke="#7d8590" stroke-opacity="0.42" stroke-width="0.7"/>
</svg>
