<svg xmlns="http://www.w3.org/2000/svg" viewBox="0 0 1024 1024" role="img" aria-label="TorGuard">
  <circle cx="512" cy="512" r="512" fill="#94EA01"/>
  <path fill="#fff" d="M750 603.7c-12.38-14.78-30.61-23.61-49.56-26.07 0-23.88-9.19-47.52-26.43-64.25-.36-32.2 0-64.4-.15-96.6a163.47 163.47 0 0 0-151.59-160.3c-45.38-3.57-92 12.86-124.71 44.51-31.63 29.68-50.58 72.48-50.85 115.88 0 31-.09 62 .09 92.93 1.41 17-9.91 31.24-12.37 47.67a86.3 86.3 0 0 0-68.36 44s-.6 1.12-1.42 2.76c-.14.29-.31.56-.45.85v.06a66.84 66.84 0 0 0-3.47 8.28 93.65 93.65 0 0 0-3 46.86C264.86 698 300.42 728 339 728.08q177.38.14 354.76 0c27.45.09 54-16.52 66.11-41.09 13.69-26.4 9.9-60.88-9.87-83.29z"/>
</svg>
